<svg version="1.1" viewBox="0.0 0.0 190.0 225.0" fill="none" stroke="none" stroke-linecap="square" stroke-miterlimit="10" width="190" height="225" xmlns:xlink="http://www.w3.org/1999/xlink" xmlns="http://www.w3.org/2000/svg"><path fill="#ffffff" d="M0 0L190.0 0L190.0 225.0L0 225.0L0 0Z" fill-rule="nonzero"/><path stroke="#333333" stroke-width="1.0" stroke-linecap="butt" d="M40.5 18.5L40.5 153.5" fill-rule="nonzero"/><path stroke="#cccccc" stroke-width="1.0" stroke-linecap="butt" d="M60.5 18.5L60.5 153.5" fill-rule="nonzero"/><path stroke="#cccccc" stroke-width="1.0" stroke-linecap="butt" d="M80.5 18.5L80.5 153.5" fill-rule="nonzero"/><path stroke="#cccccc" stroke-width="1.0" stroke-linecap="butt" d="M100.5 18.5L100.5 153.5" fill-rule="nonzero"/><path stroke="#cccccc" stroke-width="1.0" stroke-linecap="butt" d="M120.5 18.5L120.5 153.5" fill-rule="nonzero"/><path stroke="#cccccc" stroke-width="1.0" stroke-linecap="butt" d="M140.5 18.5L140.5 153.5" fill-rule="nonzero"/><path stroke="#cccccc" stroke-width="1.0" stroke-linecap="butt" d="M160.5 18.5L160.5 153.5" fill-rule="nonzero"/><path stroke="#cccccc" stroke-width="1.0" stroke-linecap="butt" d="M180.5 18.5L180.5 153.5" fill-rule="nonzero"/><path stroke="#000000" stroke-width="1.0" stroke-linecap="butt" stroke-opacity="0.0" d="M47.5 18.5L47.5 153.5" fill-rule="nonzero"/><path stroke="#000000" stroke-width="1.0" stroke-linecap="butt" stroke-opacity="0.0" d="M53.5 18.5L53.5 153.5" fill-rule="nonzero"/><path stroke="#000000" stroke-width="1.0" stroke-linecap="butt" stroke-opacity="0.0" d="M67.5 18.5L67.5 153.5" fill-rule="nonzero"/><path stroke="#000000" stroke-width="1.0" stroke-linecap="butt" stroke-opacity="0.0" d="M73.5 18.5L73.5 153.5" fill-rule="nonzero"/><path stroke="#000000" stroke-width="1.0" stroke-linecap="butt" stroke-opacity="0.0" d="M87.5 18.5L87.5 153.5" fill-rule="nonzero"/><path stroke="#000000" stroke-width="1.0" stroke-linecap="butt" stroke-opacity="0.0" d="M93.5 18.5L93.5 153.5" fill-rule="nonzero"/><path stroke="#000000" stroke-width="1.0" stroke-linecap="butt" stroke-opacity="0.0" d="M107.5 18.5L107.5 153.5" fill-rule="nonzero"/><path stroke="#000000" stroke-width="1.0" stroke-linecap="butt" stroke-opacity="0.0" d="M113.5 18.5L113.5 153.5" fill-rule="nonzero"/><path stroke="#000000" stroke-width="1.0" stroke-linecap="butt" stroke-opacity="0.0" d="M127.5 18.5L127.5 153.5" fill-rule="nonzero"/><path stroke="#000000" stroke-width="1.0" stroke-linecap="butt" stroke-opacity="0.0" d="M133.5 18.5L133.5 153.5" fill-rule="nonzero"/><path stroke="#000000" stroke-width="1.0" stroke-linecap="butt" stroke-opacity="0.0" d="M147.5 18.5L147.5 153.5" fill-rule="nonzero"/><path stroke="#000000" stroke-width="1.0" stroke-linecap="butt" stroke-opacity="0.0" d="M153.5 18.5L153.5 153.5" fill-rule="nonzero"/><path stroke="#000000" stroke-width="1.0" stroke-linecap="butt" stroke-opacity="0.0" d="M167.5 18.5L167.5 153.5" fill-rule="nonzero"/><path stroke="#000000" stroke-width="1.0" stroke-linecap="butt" stroke-opacity="0.0" d="M173.5 18.5L173.5 153.5" fill-rule="nonzero"/><path stroke="#cccccc" stroke-width="1.0" stroke-linecap="butt" d="M40.5 153.5L180.5 153.5" fill-rule="nonzero"/><path stroke="#cccccc" stroke-width="1.0" stroke-linecap="butt" d="M40.5 126.5L180.5 126.5" fill-rule="nonzero"/><path stroke="#cccccc" stroke-width="1.0" stroke-linecap="butt" d="M40.5 99.5L180.5 99.5" fill-rule="nonzero"/><path stroke="#cccccc" stroke-width="1.0" stroke-linecap="butt" d="M40.5 72.5L180.5 72.5" fill-rule="nonzero"/><path stroke="#cccccc" stroke-width="1.0" stroke-linecap="butt" d="M40.5 45.5L180.5 45.5" fill-rule="nonzero"/><path stroke="#cccccc" stroke-width="1.0" stroke-linecap="butt" d="M40.5 18.5L180.5 18.5" fill-rule="nonzero"/><clipPath id="id_0"><path d="M40.5 18.0L180.5 18.0L180.5 153.5L40.5 153.5L40.5 18.0Z" clip-rule="nonzero"/></clipPath><path stroke="#4285f4" stroke-width="4.0" stroke-linecap="butt" clip-path="url(#id_0)" d="M40.5 81.3571L100.5 70.35897L140.5 67.15826L180.5 67.4064" fill-rule="nonzero"/><path stroke="#ea4335" stroke-width="4.0" stroke-linecap="butt" clip-path="url(#id_0)" d="M40.5 79.52721L100.5 71.37873L140.5 71.99738L180.5 80.30517" fill-rule="nonzero"/><path stroke="#fbbc04" stroke-width="4.0" stroke-linecap="butt" clip-path="url(#id_0)" d="M40.5 45.97097L100.5 53.59665L140.5 57.507977L180.5 57.507977" fill-rule="nonzero"/><path fill="#000000" fill-opacity="0.0" clip-path="url(#id_0)" d="M43.5 81.3571C43.5 83.013954 42.156853 84.3571 40.5 84.3571C38.843147 84.3571 37.5 83.013954 37.5 81.3571C37.5 79.70025 38.843147 78.3571 40.5 78.3571C42.156853 78.3571 43.5 79.70025 43.5 81.3571Z" fill-rule="nonzero"/><path fill="#000000" fill-opacity="0.0" clip-path="url(#id_0)" d="M103.5 70.35897C103.5 72.01583 102.15685 73.35897 100.5 73.35897C98.84315 73.35897 97.5 72.01583 97.5 70.35897C97.5 68.70212 98.84315 67.35897 100.5 67.35897C102.15685 67.35897 103.5 68.70212 103.5 70.35897Z" fill-rule="nonzero"/><path fill="#000000" fill-opacity="0.0" clip-path="url(#id_0)" d="M143.5 67.15826C143.5 68.81511 142.15686 70.15826 140.5 70.15826C138.84314 70.15826 137.5 68.81511 137.5 67.15826C137.5 65.5014 138.84314 64.15826 140.5 64.15826C142.15686 64.15826 143.5 65.5014 143.5 67.15826Z" fill-rule="nonzero"/><path fill="#000000" fill-opacity="0.0" clip-path="url(#id_0)" d="M183.5 67.4064C183.5 69.063255 182.15686 70.4064 180.5 70.4064C178.84314 70.4064 177.5 69.063255 177.5 67.4064C177.5 65.74955 178.84314 64.4064 180.5 64.4064C182.15686 64.4064 183.5 65.74955 183.5 67.4064Z" fill-rule="nonzero"/><path fill="#000000" fill-opacity="0.0" clip-path="url(#id_0)" d="M43.5 79.52721C43.5 81.18406 42.156853 82.52721 40.5 82.52721C38.843147 82.52721 37.5 81.18406 37.5 79.52721C37.5 77.87035 38.843147 76.52721 40.5 76.52721C42.156853 76.52721 43.5 77.87035 43.5 79.52721Z" fill-rule="nonzero"/><path fill="#000000" fill-opacity="0.0" clip-path="url(#id_0)" d="M103.5 71.37873C103.5 73.03559 102.15685 74.37873 100.5 74.37873C98.84315 74.37873 97.5 73.03559 97.5 71.37873C97.5 69.72188 98.84315 68.37873 100.5 68.37873C102.15685 68.37873 103.5 69.72188 103.5 71.37873Z" fill-rule="nonzero"/><path fill="#000000" fill-opacity="0.0" clip-path="url(#id_0)" d="M143.5 71.99738C143.5 73.654236 142.15686 74.99738 140.5 74.99738C138.84314 74.99738 137.5 73.654236 137.5 71.99738C137.5 70.34052 138.84314 68.99738 140.5 68.99738C142.15686 68.99738 143.5 70.34052 143.5 71.99738Z" fill-rule="nonzero"/><path fill="#000000" fill-opacity="0.0" clip-path="url(#id_0)" d="M183.5 80.30517C183.5 81.96202 182.15686 83.30517 180.5 83.30517C178.84314 83.30517 177.5 81.96202 177.5 80.30517C177.5 78.648315 178.84314 77.30517 180.5 77.30517C182.15686 77.30517 183.5 78.648315 183.5 80.30517Z" fill-rule="nonzero"/><path fill="#000000" fill-opacity="0.0" clip-path="url(#id_0)" d="M43.5 45.97097C43.5 47.627823 42.156853 48.97097 40.5 48.97097C38.843147 48.97097 37.5 47.627823 37.5 45.97097C37.5 44.314114 38.843147 42.97097 40.5 42.97097C42.156853 42.97097 43.5 44.314114 43.5 45.97097Z" fill-rule="nonzero"/><path fill="#000000" fill-opacity="0.0" clip-path="url(#id_0)" d="M103.5 53.59665C103.5 55.2535 102.15685 56.59665 100.5 56.59665C98.84315 56.59665 97.5 55.2535 97.5 53.59665C97.5 51.939793 98.84315 50.59665 100.5 50.59665C102.15685 50.59665 103.5 51.939793 103.5 53.59665Z" fill-rule="nonzero"/><path fill="#000000" fill-opacity="0.0" clip-path="url(#id_0)" d="M143.5 57.507977C143.5 59.164833 142.15686 60.507977 140.5 60.507977C138.84314 60.507977 137.5 59.164833 137.5 57.507977C137.5 55.851124 138.84314 54.507977 140.5 54.507977C142.15686 54.507977 143.5 55.851124 143.5 57.507977Z" fill-rule="nonzero"/><path fill="#000000" fill-opacity="0.0" clip-path="url(#id_0)" d="M183.5 57.507977C183.5 59.164833 182.15686 60.507977 180.5 60.507977C178.84314 60.507977 177.5 59.164833 177.5 57.507977C177.5 55.851124 178.84314 54.507977 180.5 54.507977C182.15686 54.507977 183.5 55.851124 183.5 57.507977Z" fill-rule="nonzero"/><path fill="#000000" d="M93.390625 211.5L93.390625 201.54688L96.875 201.54688Q98.6875 201.54688 99.625 202.25Q100.5625 202.9375 100.5625 204.28125Q100.5625 205.0 100.1875 205.5625Q99.8125 206.125 99.140625 206.375Q99.90625 206.57812 100.34375 207.15625Q100.78125 207.73438 100.78125 208.57812Q100.78125 210.01562 99.859375 210.75Q98.953125 211.48438 97.265625 211.5L93.390625 211.5ZM95.4375 207.17188L95.4375 209.85938L97.203125 209.85938Q97.921875 209.85938 98.328125 209.51562Q98.734375 209.15625 98.734375 208.54688Q98.734375 207.1875 97.3125 207.17188L95.4375 207.17188ZM95.4375 205.71875L96.953125 205.71875Q98.515625 205.6875 98.515625 204.48438Q98.515625 203.79688 98.109375 203.5Q97.71875 203.20312 96.875 203.20312L95.4375 203.20312L95.4375 205.71875ZM104.34375 211.5L102.359375 211.5L102.359375 201.0L104.34375 201.0L104.34375 211.5ZM110.6875 210.75Q109.953125 211.64062 108.671875 211.64062Q107.46875 211.64062 106.84375 210.95312Q106.21875 210.26562 106.21875 208.95312L106.21875 204.10938L108.1875 204.10938L108.1875 208.875Q108.1875 210.03125 109.234375 210.03125Q110.25 210.03125 110.625 209.34375L110.625 204.10938L112.609375 204.10938L112.609375 211.5L110.75 211.5L110.6875 210.75ZM118.421875 205.95312Q118.015625 205.90625 117.703125 205.90625Q116.578125 205.90625 116.234375 206.65625L116.234375 211.5L114.265625 211.5L114.265625 204.10938L116.125 204.10938L116.1875 204.98438Q116.78125 203.96875 117.828125 203.96875Q118.15625 203.96875 118.4375 204.0625L118.421875 205.95312ZM124.953125 208.53125L124.234375 209.25L124.234375 211.5L122.265625 211.5L122.265625 201.0L124.234375 201.0L124.234375 206.8125L124.625 206.32812L126.515625 204.10938L128.89062 204.10938L126.203125 207.1875L129.10938 211.5L126.84375 211.5L124.953125 208.53125Z" fill-rule="nonzero"/><path fill="#000000" d="M18.46875 153.10938L19.046875 148.04688L24.625 148.04688L24.625 149.6875L20.671875 149.6875L20.421875 151.82812Q21.125 151.45312 21.921875 151.45312Q23.34375 151.45312 24.140625 152.34375Q24.953125 153.21875 24.953125 154.8125Q24.953125 155.76562 24.546875 156.53125Q24.140625 157.29688 23.375 157.71875Q22.625 158.14062 21.59375 158.14062Q20.6875 158.14062 19.90625 157.78125Q19.140625 157.40625 18.6875 156.75Q18.25 156.07812 18.21875 155.23438L20.171875 155.23438Q20.234375 155.85938 20.609375 156.20312Q20.984375 156.54688 21.578125 156.54688Q22.25 156.54688 22.609375 156.0625Q22.96875 155.57812 22.96875 154.70312Q22.96875 153.84375 22.546875 153.40625Q22.140625 152.95312 21.375 152.95312Q20.671875 152.95312 20.234375 153.3125L20.046875 153.5L18.46875 153.10938ZM32.875 153.89062Q32.875 155.95312 32.015625 157.04688Q31.171875 158.14062 29.515625 158.14062Q27.890625 158.14062 27.03125 157.0625Q26.171875 155.98438 26.15625 153.98438L26.15625 152.15625Q26.15625 150.0625 27.015625 148.98438Q27.875 147.90625 29.5 147.90625Q31.140625 147.90625 32.0 148.98438Q32.859375 150.04688 32.875 152.04688L32.875 153.89062ZM30.90625 151.875Q30.90625 150.64062 30.5625 150.07812Q30.21875 149.51562 29.5 149.51562Q28.8125 149.51562 28.46875 150.04688Q28.140625 150.57812 28.125 151.71875L28.125 154.14062Q28.125 155.35938 28.453125 155.95312Q28.78125 156.54688 29.515625 156.54688Q30.25 156.54688 30.5625 155.98438Q30.890625 155.40625 30.90625 154.23438L30.90625 151.875Z" fill-rule="nonzero"/><path fill="#000000" d="M23.53125 120.837494L23.53125 122.47812L23.34375 122.47812Q22.0 122.493744 21.1875 123.16562Q20.375 123.837494 20.203125 125.04062Q21.0 124.243744 22.203125 124.243744Q23.515625 124.243744 24.28125 125.181244Q25.046875 126.10312 25.046875 127.618744Q25.046875 128.5875 24.625 129.38437Q24.203125 130.16562 23.421875 130.60312Q22.65625 131.04062 21.6875 131.04062Q20.125 131.04062 19.15625 129.94687Q18.1875 128.85312 18.1875 127.024994L18.1875 126.306244Q18.1875 124.69687 18.796875 123.462494Q19.40625 122.212494 20.546875 121.54062Q21.703125 120.85312 23.203125 120.837494L23.53125 120.837494ZM21.609375 125.82187Q21.125 125.82187 20.734375 126.07187Q20.34375 126.32187 20.171875 126.743744L20.171875 127.337494Q20.171875 128.32187 20.5625 128.88437Q20.953125 129.44687 21.65625 129.44687Q22.28125 129.44687 22.671875 128.94687Q23.078125 128.43124 23.078125 127.63437Q23.078125 126.82187 22.671875 126.32187Q22.28125 125.82187 21.609375 125.82187ZM32.875 126.79062Q32.875 128.85312 32.015625 129.94687Q31.171875 131.04062 29.515625 131.04062Q27.890625 131.04062 27.03125 129.9625Q26.171875 128.88437 26.15625 126.88437L26.15625 125.056244Q26.15625 122.962494 27.015625 121.88437Q27.875 120.806244 29.5 120.806244Q31.140625 120.806244 32.0 121.88437Q32.859375 122.94687 32.875 124.94687L32.875 126.79062ZM30.90625 124.774994Q30.90625 123.54062 30.5625 122.97812Q30.21875 122.41562 29.5 122.41562Q28.8125 122.41562 28.46875 122.94687Q28.140625 123.47812 28.125 124.618744L28.125 127.04062Q28.125 128.25937 28.453125 128.85312Q28.78125 129.44687 29.515625 129.44687Q30.25 129.44687 30.5625 128.88437Q30.890625 128.30624 30.90625 127.13437L30.90625 124.774994Z" fill-rule="nonzero"/><path fill="#000000" d="M24.9375 94.95625L21.09375 103.8L19.015625 103.8L22.859375 95.44063L17.921875 95.44063L17.921875 93.84688L24.9375 93.84688L24.9375 94.95625ZM32.875 99.69063Q32.875 101.75313 32.015625 102.84688Q31.171875 103.94063 29.515625 103.94063Q27.890625 103.94063 27.03125 102.8625Q26.171875 101.78438 26.15625 99.78438L26.15625 97.95625Q26.15625 95.8625 27.015625 94.78438Q27.875 93.70625 29.5 93.70625Q31.140625 93.70625 32.0 94.78438Q32.859375 95.84688 32.875 97.84688L32.875 99.69063ZM30.90625 97.675Q30.90625 96.44063 30.5625 95.87813Q30.21875 95.31563 29.5 95.31563Q28.8125 95.31563 28.46875 95.84688Q28.140625 96.37813 28.125 97.51875L28.125 99.94063Q28.125 101.15938 28.453125 101.75313Q28.78125 102.34688 29.515625 102.34688Q30.25 102.34688 30.5625 101.78438Q30.890625 101.20625 30.90625 100.03438L30.90625 97.675Z" fill-rule="nonzero"/><path fill="#000000" d="M24.671875 69.3875Q24.671875 70.12187 24.296875 70.68437Q23.9375 71.23125 23.296875 71.575Q24.03125 71.91875 24.453125 72.52812Q24.875 73.1375 24.875 73.96562Q24.875 75.29375 23.96875 76.075Q23.078125 76.84062 21.515625 76.84062Q19.96875 76.84062 19.0625 76.075Q18.15625 75.29375 18.15625 73.96562Q18.15625 73.1375 18.578125 72.52812Q19.0 71.91875 19.71875 71.575Q19.078125 71.23125 18.71875 70.68437Q18.359375 70.12187 18.359375 69.3875Q18.359375 68.12187 19.203125 67.37187Q20.0625 66.60625 21.515625 66.60625Q22.96875 66.60625 23.8125 67.35625Q24.671875 68.10625 24.671875 69.3875ZM22.890625 73.825Q22.890625 73.18437 22.515625 72.79375Q22.140625 72.40312 21.5 72.40312Q20.875 72.40312 20.5 72.79375Q20.125 73.16875 20.125 73.825Q20.125 74.46562 20.484375 74.85625Q20.859375 75.24687 21.515625 75.24687Q22.15625 75.24687 22.515625 74.87187Q22.890625 74.49687 22.890625 73.825ZM22.6875 69.48125Q22.6875 68.90312 22.375 68.55937Q22.078125 68.2 21.515625 68.2Q20.953125 68.2 20.640625 68.54375Q20.34375 68.8875 20.34375 69.48125Q20.34375 70.075 20.640625 70.45Q20.953125 70.80937 21.515625 70.80937Q22.078125 70.80937 22.375 70.45Q22.6875 70.075 22.6875 69.48125ZM32.875 72.59062Q32.875 74.65312 32.015625 75.74687Q31.171875 76.84062 29.515625 76.84062Q27.890625 76.84062 27.03125 75.7625Q26.171875 74.68437 26.15625 72.68437L26.15625 70.85625Q26.15625 68.7625 27.015625 67.68437Q27.875 66.60625 29.5 66.60625Q31.140625 66.60625 32.0 67.68437Q32.859375 68.74687 32.875 70.74687L32.875 72.59062ZM30.90625 70.575Q30.90625 69.34062 30.5625 68.77812Q30.21875 68.21562 29.5 68.21562Q28.8125 68.21562 28.46875 68.74687Q28.140625 69.27812 28.125 70.41875L28.125 72.84062Q28.125 74.05937 28.453125 74.65312Q28.78125 75.24687 29.515625 75.24687Q30.25 75.24687 30.5625 74.68437Q30.890625 74.10625 30.90625 72.93437L30.90625 70.575Z" fill-rule="nonzero"/><path fill="#000000" d="M22.796875 45.615623Q22.03125 46.38125 21.0 46.38125Q19.671875 46.38125 18.875 45.475Q18.09375 44.56875 18.09375 43.0375Q18.09375 42.053123 18.515625 41.240623Q18.9375 40.4125 19.703125 39.959373Q20.46875 39.50625 21.4375 39.50625Q22.421875 39.50625 23.1875 40.00625Q23.953125 40.490623 24.375 41.4125Q24.796875 42.334373 24.796875 43.521873L24.796875 44.25625Q24.796875 46.75625 23.5625 48.178123Q22.328125 49.6 20.0625 49.69375L19.578125 49.69375L19.578125 48.053123L20.015625 48.0375Q22.59375 47.928123 22.796875 45.615623ZM21.484375 44.865623Q21.953125 44.865623 22.296875 44.63125Q22.640625 44.38125 22.828125 44.021873L22.828125 43.209373Q22.828125 42.209373 22.4375 41.6625Q22.0625 41.1 21.421875 41.1Q20.828125 41.1 20.4375 41.646873Q20.0625 42.19375 20.0625 43.00625Q20.0625 43.81875 20.421875 44.35Q20.796875 44.865623 21.484375 44.865623ZM32.875 45.490623Q32.875 47.553123 32.015625 48.646873Q31.171875 49.740623 29.515625 49.740623Q27.890625 49.740623 27.03125 48.6625Q26.171875 47.584373 26.15625 45.584373L26.15625 43.75625Q26.15625 41.6625 27.015625 40.584373Q27.875 39.50625 29.5 39.50625Q31.140625 39.50625 32.0 40.584373Q32.859375 41.646873 32.875 43.646873L32.875 45.490623ZM30.90625 43.475Q30.90625 42.240623 30.5625 41.678123Q30.21875 41.115623 29.5 41.115623Q28.8125 41.115623 28.46875 41.646873Q28.140625 42.178123 28.125 43.31875L28.125 45.740623Q28.125 46.959373 28.453125 47.553123Q28.78125 48.146873 29.515625 48.146873Q30.25 48.146873 30.5625 47.584373Q30.890625 47.00625 30.90625 45.834373L30.90625 43.475Z" fill-rule="nonzero"/><path fill="#000000" d="M14.96875 22.5L13.0 22.5L13.0 14.890625L10.640625 15.609375L10.640625 14.015625L14.765625 12.53125L14.96875 12.53125L14.96875 22.5ZM24.875 18.390625Q24.875 20.453125 24.015625 21.546875Q23.171875 22.640625 21.515625 22.640625Q19.890625 22.640625 19.03125 21.5625Q18.171875 20.484375 18.15625 18.484375L18.15625 16.65625Q18.15625 14.5625 19.015625 13.484375Q19.875 12.40625 21.5 12.40625Q23.140625 12.40625 24.0 13.484375Q24.859375 14.546875 24.875 16.546875L24.875 18.390625ZM22.90625 16.375Q22.90625 15.140625 22.5625 14.578125Q22.21875 14.015625 21.5 14.015625Q20.8125 14.015625 20.46875 14.546875Q20.140625 15.078125 20.125 16.21875L20.125 18.640625Q20.125 19.859375 20.453125 20.453125Q20.78125 21.046875 21.515625 21.046875Q22.25 21.046875 22.5625 20.484375Q22.890625 19.90625 22.90625 18.734375L22.90625 16.375ZM32.875 18.390625Q32.875 20.453125 32.015625 21.546875Q31.171875 22.640625 29.515625 22.640625Q27.890625 22.640625 27.03125 21.5625Q26.171875 20.484375 26.15625 18.484375L26.15625 16.65625Q26.15625 14.5625 27.015625 13.484375Q27.875 12.40625 29.5 12.40625Q31.140625 12.40625 32.0 13.484375Q32.859375 14.546875 32.875 16.546875L32.875 18.390625ZM30.90625 16.375Q30.90625 15.140625 30.5625 14.578125Q30.21875 14.015625 29.5 14.015625Q28.8125 14.015625 28.46875 14.546875Q28.140625 15.078125 28.125 16.21875L28.125 18.640625Q28.125 19.859375 28.453125 20.453125Q28.78125 21.046875 29.515625 21.046875Q30.25 21.046875 30.5625 20.484375Q30.890625 19.90625 30.90625 18.734375L30.90625 16.375Z" fill-rule="nonzero"/><path fill="#000000" d="M43.875 169.39062Q43.875 171.45312 43.015625 172.54688Q42.171875 173.64062 40.515625 173.64062Q38.890625 173.64062 38.03125 172.5625Q37.171875 171.48438 37.15625 169.48438L37.15625 167.65625Q37.15625 165.5625 38.015625 164.48438Q38.875 163.40625 40.5 163.40625Q42.140625 163.40625 43.0 164.48438Q43.859375 165.54688 43.875 167.54688L43.875 169.39062ZM41.90625 167.375Q41.90625 166.14062 41.5625 165.57812Q41.21875 165.01562 40.5 165.01562Q39.8125 165.01562 39.46875 165.54688Q39.140625 166.07812 39.125 167.21875L39.125 169.64062Q39.125 170.85938 39.453125 171.45312Q39.78125 172.04688 40.515625 172.04688Q41.25 172.04688 41.5625 171.48438Q41.890625 170.90625 41.90625 169.73438L41.90625 167.375Z" fill-rule="nonzero"/><path fill="#000000" d="M61.96875 173.5L60.0 173.5L60.0 165.89062L57.640625 166.60938L57.640625 165.01562L61.765625 163.53125L61.96875 163.53125L61.96875 173.5Z" fill-rule="nonzero"/><path fill="#000000" d="M84.0 173.5L77.171875 173.5L77.171875 172.14062L80.390625 168.71875Q81.0625 167.98438 81.375 167.45312Q81.703125 166.90625 81.703125 166.42188Q81.703125 165.76562 81.359375 165.39062Q81.03125 165.0 80.40625 165.0Q79.734375 165.0 79.34375 165.46875Q78.96875 165.92188 78.96875 166.67188L76.984375 166.67188Q76.984375 165.76562 77.40625 165.01562Q77.84375 164.26562 78.640625 163.84375Q79.4375 163.40625 80.4375 163.40625Q81.96875 163.40625 82.8125 164.15625Q83.671875 164.89062 83.671875 166.23438Q83.671875 166.96875 83.28125 167.73438Q82.90625 168.5 81.984375 169.51562L79.71875 171.90625L84.0 171.90625L84.0 173.5Z" fill-rule="nonzero"/><path fill="#000000" d="M99.1875 167.64062L100.234375 167.64062Q100.984375 167.64062 101.34375 167.26562Q101.71875 166.89062 101.71875 166.28125Q101.71875 165.67188 101.359375 165.34375Q101.0 165.0 100.375 165.0Q99.796875 165.0 99.40625 165.3125Q99.03125 165.625 99.03125 166.125L97.0625 166.125Q97.0625 165.34375 97.484375 164.73438Q97.90625 164.10938 98.65625 163.76562Q99.40625 163.40625 100.328125 163.40625Q101.90625 163.40625 102.796875 164.17188Q103.6875 164.92188 103.6875 166.25Q103.6875 166.9375 103.265625 167.51562Q102.859375 168.07812 102.1875 168.39062Q103.015625 168.6875 103.421875 169.29688Q103.84375 169.89062 103.84375 170.70312Q103.84375 172.03125 102.875 172.84375Q101.921875 173.64062 100.328125 173.64062Q98.828125 173.64062 97.875 172.85938Q96.9375 172.0625 96.9375 170.76562L98.90625 170.76562Q98.90625 171.32812 99.328125 171.6875Q99.75 172.04688 100.375 172.04688Q101.078125 172.04688 101.46875 171.67188Q101.875 171.29688 101.875 170.6875Q101.875 169.1875 100.234375 169.1875L99.1875 169.1875L99.1875 167.64062Z" fill-rule="nonzero"/><path fill="#000000" d="M123.015625 169.75L124.15625 169.75L124.15625 171.34375L123.015625 171.34375L123.015625 173.5L121.046875 173.5L121.046875 171.34375L116.96875 171.34375L116.875 170.10938L121.03125 163.54688L123.015625 163.54688L123.015625 169.75ZM118.84375 169.75L121.046875 169.75L121.046875 166.23438L120.921875 166.46875L118.84375 169.75Z" fill-rule="nonzero"/><path fill="#000000" d="M137.46875 168.60938L138.04688 163.54688L143.625 163.54688L143.625 165.1875L139.67188 165.1875L139.42188 167.32812Q140.125 166.95312 140.92188 166.95312Q142.34375 166.95312 143.14062 167.84375Q143.95312 168.71875 143.95312 170.3125Q143.95312 171.26562 143.54688 172.03125Q143.14062 172.79688 142.375 173.21875Q141.625 173.64062 140.59375 173.64062Q139.6875 173.64062 138.90625 173.28125Q138.14062 172.90625 137.6875 172.25Q137.25 171.57812 137.21875 170.73438L139.17188 170.73438Q139.23438 171.35938 139.60938 171.70312Q139.98438 172.04688 140.57812 172.04688Q141.25 172.04688 141.60938 171.5625Q141.96875 171.07812 141.96875 170.20312Q141.96875 169.34375 141.54688 168.90625Q141.14062 168.45312 140.375 168.45312Q139.67188 168.45312 139.23438 168.8125L139.04688 169.0L137.46875 168.60938Z" fill-rule="nonzero"/><path fill="#000000" d="M162.53125 163.4375L162.53125 165.07812L162.34375 165.07812Q161.0 165.09375 160.1875 165.76562Q159.375 166.4375 159.20312 167.64062Q160.0 166.84375 161.20312 166.84375Q162.51562 166.84375 163.28125 167.78125Q164.04688 168.70312 164.04688 170.21875Q164.04688 171.1875 163.625 171.98438Q163.20312 172.76562 162.42188 173.20312Q161.65625 173.64062 160.6875 173.64062Q159.125 173.64062 158.15625 172.54688Q157.1875 171.45312 157.1875 169.625L157.1875 168.90625Q157.1875 167.29688 157.79688 166.0625Q158.40625 164.8125 159.54688 164.14062Q160.70312 163.45312 162.20312 163.4375L162.53125 163.4375ZM160.60938 168.42188Q160.125 168.42188 159.73438 168.67188Q159.34375 168.92188 159.17188 169.34375L159.17188 169.9375Q159.17188 170.92188 159.5625 171.48438Q159.95312 172.04688 160.65625 172.04688Q161.28125 172.04688 161.67188 171.54688Q162.07812 171.03125 162.07812 170.23438Q162.07812 169.42188 161.67188 168.92188Q161.28125 168.42188 160.60938 168.42188Z" fill-rule="nonzero"/><path fill="#000000" d="M183.9375 164.65625L180.09375 173.5L178.01562 173.5L181.85938 165.14062L176.92188 165.14062L176.92188 163.54688L183.9375 163.54688L183.9375 164.65625Z" fill-rule="nonzero"/></svg>