<svg version="1.1" viewBox="0.0 0.0 205.0 225.0" fill="none" stroke="none" stroke-linecap="square" stroke-miterlimit="10" width="205" height="225" xmlns:xlink="http://www.w3.org/1999/xlink" xmlns="http://www.w3.org/2000/svg"><path fill="#ffffff" d="M0 0L205.0 0L205.0 225.0L0 225.0L0 0Z" fill-rule="nonzero"/><path stroke="#cccccc" stroke-width="1.0" stroke-linecap="butt" d="M194.5 16.5L194.5 159.5" fill-rule="nonzero"/><path stroke="#cccccc" stroke-width="1.0" stroke-linecap="butt" d="M168.5 16.5L168.5 159.5" fill-rule="nonzero"/><path stroke="#cccccc" stroke-width="1.0" stroke-linecap="butt" d="M141.5 16.5L141.5 159.5" fill-rule="nonzero"/><path stroke="#cccccc" stroke-width="1.0" stroke-linecap="butt" d="M114.5 16.5L114.5 159.5" fill-rule="nonzero"/><path stroke="#cccccc" stroke-width="1.0" stroke-linecap="butt" d="M88.5 16.5L88.5 159.5" fill-rule="nonzero"/><path stroke="#cccccc" stroke-width="1.0" stroke-linecap="butt" d="M61.5 16.5L61.5 159.5" fill-rule="nonzero"/><path stroke="#cccccc" stroke-width="1.0" stroke-linecap="butt" d="M61.5 159.5L194.5 159.5" fill-rule="nonzero"/><path stroke="#cccccc" stroke-width="1.0" stroke-linecap="butt" d="M61.5 130.5L194.5 130.5" fill-rule="nonzero"/><path stroke="#cccccc" stroke-width="1.0" stroke-linecap="butt" d="M61.5 102.5L194.5 102.5" fill-rule="nonzero"/><path stroke="#cccccc" stroke-width="1.0" stroke-linecap="butt" d="M61.5 73.5L194.5 73.5" fill-rule="nonzero"/><path stroke="#cccccc" stroke-width="1.0" stroke-linecap="butt" d="M61.5 44.5L194.5 44.5" fill-rule="nonzero"/><path stroke="#cccccc" stroke-width="1.0" stroke-linecap="butt" d="M61.5 16.5L194.5 16.5" fill-rule="nonzero"/><clipPath id="id_0"><path d="M61.5 16.25L194.75 16.25L194.75 159.5L61.5 159.5L61.5 16.25Z" clip-rule="nonzero"/></clipPath><path stroke="#4285f4" stroke-width="4.0" stroke-linecap="butt" clip-path="url(#id_0)" d="M61.5 83.23085L101.475 72.14779L141.45 70.74417L194.75 73.39082" fill-rule="nonzero"/><path stroke="#ea4335" stroke-width="4.0" stroke-linecap="butt" clip-path="url(#id_0)" d="M61.5 81.29629L101.475 83.98515L141.45 76.76734L194.75 74.802475" fill-rule="nonzero"/><path stroke="#fbbc04" stroke-width="4.0" stroke-linecap="butt" clip-path="url(#id_0)" d="M61.5 45.820786L101.475 42.596634L141.45 50.059265L194.75 60.465935" fill-rule="nonzero"/><path fill="#000000" fill-opacity="0.0" clip-path="url(#id_0)" d="M64.5 83.23085C64.5 84.8877 63.156853 86.23085 61.5 86.23085C59.843147 86.23085 58.5 84.8877 58.5 83.23085C58.5 81.574 59.843147 80.23085 61.5 80.23085C63.156853 80.23085 64.5 81.574 64.5 83.23085Z" fill-rule="nonzero"/><path fill="#000000" fill-opacity="0.0" clip-path="url(#id_0)" d="M104.475 72.14779C104.475 73.80465 103.13185 75.14779 101.475 75.14779C99.818146 75.14779 98.475 73.80465 98.475 72.14779C98.475 70.49094 99.818146 69.14779 101.475 69.14779C103.13185 69.14779 104.475 70.49094 104.475 72.14779Z" fill-rule="nonzero"/><path fill="#000000" fill-opacity="0.0" clip-path="url(#id_0)" d="M144.45 70.74417C144.45 72.401024 143.10686 73.74417 141.45 73.74417C139.79315 73.74417 138.45 72.401024 138.45 70.74417C138.45 69.08732 139.79315 67.74417 141.45 67.74417C143.10686 67.74417 144.45 69.08732 144.45 70.74417Z" fill-rule="nonzero"/><path fill="#000000" fill-opacity="0.0" clip-path="url(#id_0)" d="M197.75 73.39082C197.75 75.04768 196.40686 76.39082 194.75 76.39082C193.09314 76.39082 191.75 75.04768 191.75 73.39082C191.75 71.73397 193.09314 70.39082 194.75 70.39082C196.40686 70.39082 197.75 71.73397 197.75 73.39082Z" fill-rule="nonzero"/><path fill="#000000" fill-opacity="0.0" clip-path="url(#id_0)" d="M64.5 81.29629C64.5 82.95315 63.156853 84.29629 61.5 84.29629C59.843147 84.29629 58.5 82.95315 58.5 81.29629C58.5 79.639435 59.843147 78.29629 61.5 78.29629C63.156853 78.29629 64.5 79.639435 64.5 81.29629Z" fill-rule="nonzero"/><path fill="#000000" fill-opacity="0.0" clip-path="url(#id_0)" d="M104.475 83.98515C104.475 85.64201 103.13185 86.98515 101.475 86.98515C99.818146 86.98515 98.475 85.64201 98.475 83.98515C98.475 82.3283 99.818146 80.98515 101.475 80.98515C103.13185 80.98515 104.475 82.3283 104.475 83.98515Z" fill-rule="nonzero"/><path fill="#000000" fill-opacity="0.0" clip-path="url(#id_0)" d="M144.45 76.76734C144.45 78.424194 143.10686 79.76734 141.45 79.76734C139.79315 79.76734 138.45 78.424194 138.45 76.76734C138.45 75.11049 139.79315 73.76734 141.45 73.76734C143.10686 73.76734 144.45 75.11049 144.45 76.76734Z" fill-rule="nonzero"/><path fill="#000000" fill-opacity="0.0" clip-path="url(#id_0)" d="M197.75 74.802475C197.75 76.45933 196.40686 77.802475 194.75 77.802475C193.09314 77.802475 191.75 76.45933 191.75 74.802475C191.75 73.14562 193.09314 71.802475 194.75 71.802475C196.40686 71.802475 197.75 73.14562 197.75 74.802475Z" fill-rule="nonzero"/><path fill="#000000" fill-opacity="0.0" clip-path="url(#id_0)" d="M64.5 45.820786C64.5 47.47764 63.156853 48.820786 61.5 48.820786C59.843147 48.820786 58.5 47.47764 58.5 45.820786C58.5 44.16393 59.843147 42.820786 61.5 42.820786C63.156853 42.820786 64.5 44.16393 64.5 45.820786Z" fill-rule="nonzero"/><path fill="#000000" fill-opacity="0.0" clip-path="url(#id_0)" d="M104.475 42.596634C104.475 44.25349 103.13185 45.596634 101.475 45.596634C99.818146 45.596634 98.475 44.25349 98.475 42.596634C98.475 40.93978 99.818146 39.596634 101.475 39.596634C103.13185 39.596634 104.475 40.93978 104.475 42.596634Z" fill-rule="nonzero"/><path fill="#000000" fill-opacity="0.0" clip-path="url(#id_0)" d="M144.45 50.059265C144.45 51.716118 143.10686 53.059265 141.45 53.059265C139.79315 53.059265 138.45 51.716118 138.45 50.059265C138.45 48.40241 139.79315 47.059265 141.45 47.059265C143.10686 47.059265 144.45 48.40241 144.45 50.059265Z" fill-rule="nonzero"/><path fill="#000000" fill-opacity="0.0" clip-path="url(#id_0)" d="M197.75 60.465935C197.75 62.122787 196.40686 63.465935 194.75 63.465935C193.09314 63.465935 191.75 62.122787 191.75 60.465935C191.75 58.809082 193.09314 57.465935 194.75 57.465935C196.40686 57.465935 197.75 58.809082 197.75 60.465935Z" fill-rule="nonzero"/><path fill="#000000" d="M91.03125 205.5248L93.078125 205.5248L93.078125 212.41542Q93.078125 213.36855 92.65625 214.10292Q92.234375 214.82167 91.46875 215.22792Q90.703125 215.61855 89.734375 215.61855Q88.15625 215.61855 87.28125 214.82167Q86.40625 214.00917 86.40625 212.54042L88.46875 212.54042Q88.46875 213.2748 88.765625 213.61855Q89.078125 213.9623 89.734375 213.9623Q90.328125 213.9623 90.671875 213.57167Q91.03125 213.16542 91.03125 212.41542L91.03125 205.5248ZM97.0625 211.97792L97.0625 215.47792L95.015625 215.47792L95.015625 205.5248L98.890625 205.5248Q100.015625 205.5248 100.859375 205.93105Q101.71875 206.3373 102.171875 207.10292Q102.640625 207.85292 102.640625 208.82167Q102.640625 210.2748 101.640625 211.13417Q100.640625 211.97792 98.859375 211.97792L97.0625 211.97792ZM97.0625 210.30605L98.890625 210.30605Q99.703125 210.30605 100.125 209.93105Q100.5625 209.54042 100.5625 208.8373Q100.5625 208.10292 100.125 207.6498Q99.703125 207.19667 98.9375 207.18105L97.0625 207.18105L97.0625 210.30605ZM110.0 211.16542L106.0625 211.16542L106.0625 213.8373L110.6875 213.8373L110.6875 215.47792L104.015625 215.47792L104.015625 205.5248L110.671875 205.5248L110.671875 207.18105L106.0625 207.18105L106.0625 209.55605L110.0 209.55605L110.0 211.16542ZM119.890625 214.2123Q119.328125 214.88417 118.3125 215.25917Q117.3125 215.61855 116.078125 215.61855Q114.796875 215.61855 113.8125 215.05605Q112.84375 214.49355 112.3125 213.41542Q111.78125 212.3373 111.765625 210.88417L111.765625 210.2123Q111.765625 208.72792 112.265625 207.63417Q112.765625 206.54042 113.71875 205.9623Q114.671875 205.38417 115.9375 205.38417Q117.703125 205.38417 118.703125 206.22792Q119.703125 207.07167 119.890625 208.69667L117.890625 208.69667Q117.75 207.8373 117.28125 207.44667Q116.8125 207.04042 116.0 207.04042Q114.953125 207.04042 114.40625 207.8373Q113.859375 208.61855 113.859375 210.16542L113.859375 210.80605Q113.859375 212.36855 114.453125 213.16542Q115.046875 213.9623 116.1875 213.9623Q117.34375 213.9623 117.84375 213.47792L117.84375 211.75917L115.96875 211.75917L115.96875 210.24355L119.890625 210.24355L119.890625 214.2123ZM133.17188 210.72792Q133.17188 212.11855 132.71875 213.1498Q132.28125 214.18105 131.46875 214.80605L133.125 216.10292L131.82812 217.25917L129.70312 215.55605Q129.34375 215.61855 128.95312 215.61855Q127.71875 215.61855 126.734375 215.0248Q125.765625 214.43105 125.234375 213.32167Q124.703125 212.2123 124.703125 210.7748L124.703125 210.29042Q124.703125 208.82167 125.234375 207.7123Q125.765625 206.5873 126.71875 205.99355Q127.6875 205.38417 128.9375 205.38417Q130.1875 205.38417 131.14062 205.99355Q132.10938 206.5873 132.64062 207.7123Q133.17188 208.82167 133.17188 210.2748L133.17188 210.72792ZM131.09375 210.2748Q131.09375 208.7123 130.53125 207.8998Q129.98438 207.0873 128.9375 207.0873Q127.90625 207.0873 127.34375 207.8998Q126.78125 208.69667 126.78125 210.24355L126.78125 210.72792Q126.78125 212.24355 127.34375 213.0873Q127.90625 213.93105 128.95312 213.93105Q129.98438 213.93105 130.53125 213.11855Q131.09375 212.30605 131.09375 210.75917L131.09375 210.2748ZM139.3125 214.72792Q138.57812 215.61855 137.29688 215.61855Q136.09375 215.61855 135.46875 214.93105Q134.84375 214.24355 134.84375 212.93105L134.84375 208.0873L136.8125 208.0873L136.8125 212.85292Q136.8125 214.00917 137.85938 214.00917Q138.875 214.00917 139.25 213.32167L139.25 208.0873L141.23438 208.0873L141.23438 215.47792L139.375 215.47792L139.3125 214.72792ZM147.17188 215.47792Q147.03125 215.2123 146.96875 214.82167Q146.25 215.61855 145.10938 215.61855Q144.01562 215.61855 143.29688 214.99355Q142.59375 214.35292 142.59375 213.3998Q142.59375 212.22792 143.45312 211.60292Q144.32812 210.9623 145.98438 210.9623L146.89062 210.9623L146.89062 210.54042Q146.89062 210.0248 146.625 209.7123Q146.35938 209.3998 145.79688 209.3998Q145.29688 209.3998 145.01562 209.6498Q144.73438 209.88417 144.73438 210.30605L142.75 210.30605Q142.75 209.66542 143.14062 209.11855Q143.54688 208.57167 144.26562 208.25917Q145.0 207.94667 145.90625 207.94667Q147.26562 207.94667 148.0625 208.63417Q148.875 209.32167 148.875 210.55605L148.875 213.7748Q148.875 214.82167 149.17188 215.36855L149.17188 215.47792L147.17188 215.47792ZM145.53125 214.10292Q145.96875 214.10292 146.34375 213.91542Q146.71875 213.7123 146.89062 213.38417L146.89062 212.11855L146.15625 212.11855Q144.67188 212.11855 144.57812 213.13417L144.5625 213.25917Q144.5625 213.61855 144.8125 213.86855Q145.07812 214.10292 145.53125 214.10292ZM152.96875 215.47792L150.98438 215.47792L150.98438 204.97792L152.96875 204.97792L152.96875 215.47792ZM156.96875 215.47792L154.98438 215.47792L154.98438 208.0873L156.96875 208.0873L156.96875 215.47792ZM154.875 206.16542Q154.875 205.72792 155.17188 205.44667Q155.46875 205.1498 155.98438 205.1498Q156.48438 205.1498 156.78125 205.44667Q157.07812 205.72792 157.07812 206.16542Q157.07812 206.61855 156.78125 206.91542Q156.48438 207.19667 155.98438 207.19667Q155.48438 207.19667 155.17188 206.91542Q154.875 206.61855 154.875 206.16542ZM161.25 206.25917L161.25 208.0873L162.51562 208.0873L162.51562 209.5248L161.25 209.5248L161.25 213.22792Q161.25 213.63417 161.40625 213.82167Q161.5625 213.99355 162.01562 213.99355Q162.34375 213.99355 162.59375 213.94667L162.59375 215.43105Q162.01562 215.61855 161.39062 215.61855Q159.3125 215.61855 159.28125 213.50917L159.28125 209.5248L158.1875 209.5248L158.1875 208.0873L159.28125 208.0873L159.28125 206.25917L161.25 206.25917ZM166.64062 212.68105L168.01562 208.0873L170.125 208.0873L167.15625 216.63417L167.0 217.00917Q166.32812 218.4623 164.8125 218.4623Q164.375 218.4623 163.9375 218.3373L163.9375 216.8373L164.23438 216.85292Q164.79688 216.85292 165.0625 216.68105Q165.34375 216.50917 165.5 216.10292L165.73438 215.49355L163.14062 208.0873L165.26562 208.0873L166.64062 212.68105Z" fill-rule="nonzero"/><path fill="#000000" d="M18.907377 107.6701L18.907377 111.27947L20.954252 111.95135L20.954252 114.13885L11.001127 110.43572L11.001127 108.52947L20.954252 104.81072L20.954252 106.9826L18.907377 107.6701ZM17.235502 110.71697L17.235502 108.2326L13.516752 109.4826L17.235502 110.71697ZM11.001127 96.76385L17.563627 96.76385Q19.188627 96.76385 20.141752 97.7951Q21.094877 98.81072 21.094877 100.57635Q21.094877 102.32635 20.173002 103.3576Q19.251127 104.37322 17.626127 104.38885L11.001127 104.38885L11.001127 102.34197L17.563627 102.34197Q18.548002 102.34197 19.001127 101.87322Q19.438627 101.40447 19.438627 100.57635Q19.438627 98.84197 17.626127 98.82635L11.001127 98.82635L11.001127 96.76385ZM17.641752 87.4826Q19.251127 87.59197 20.173002 88.6701Q21.094877 89.7326 21.094877 91.4826Q21.094877 93.40447 19.813627 94.49822Q18.516752 95.59197 16.266752 95.59197L15.657377 95.59197Q14.219877 95.59197 13.126127 95.09197Q12.032377 94.59197 11.454252 93.65447Q10.860502 92.70135 10.860502 91.46697Q10.860502 89.7326 11.782377 88.68572Q12.704252 87.63885 14.376127 87.46697L14.376127 89.51385Q13.407377 89.59197 12.985502 90.06072Q12.548002 90.51385 12.548002 91.46697Q12.548002 92.4826 13.282377 92.99822Q14.016752 93.49822 15.563627 93.51385L16.313627 93.51385Q17.923002 93.51385 18.673002 93.02947Q19.423002 92.5451 19.423002 91.4826Q19.423002 90.5451 18.985502 90.07635Q18.548002 89.6076 17.641752 89.52947L17.641752 87.4826Z" fill-rule="nonzero"/><path fill="#000000" d="M39.46875 159.10938L40.046875 154.04688L45.625 154.04688L45.625 155.6875L41.671875 155.6875L41.421875 157.82812Q42.125 157.45312 42.921875 157.45312Q44.34375 157.45312 45.140625 158.34375Q45.953125 159.21875 45.953125 160.8125Q45.953125 161.76562 45.546875 162.53125Q45.140625 163.29688 44.375 163.71875Q43.625 164.14062 42.59375 164.14062Q41.6875 164.14062 40.90625 163.78125Q40.140625 163.40625 39.6875 162.75Q39.25 162.07812 39.21875 161.23438L41.171875 161.23438Q41.234375 161.85938 41.609375 162.20312Q41.984375 162.54688 42.578125 162.54688Q43.25 162.54688 43.609375 162.0625Q43.96875 161.57812 43.96875 160.70312Q43.96875 159.84375 43.546875 159.40625Q43.140625 158.95312 42.375 158.95312Q41.671875 158.95312 41.234375 159.3125L41.046875 159.5L39.46875 159.10938ZM53.875 159.89062Q53.875 161.95312 53.015625 163.04688Q52.171875 164.14062 50.515625 164.14062Q48.890625 164.14062 48.03125 163.0625Q47.171875 161.98438 47.15625 159.98438L47.15625 158.15625Q47.15625 156.0625 48.015625 154.98438Q48.875 153.90625 50.5 153.90625Q52.140625 153.90625 53.0 154.98438Q53.859375 156.04688 53.875 158.04688L53.875 159.89062ZM51.90625 157.875Q51.90625 156.64062 51.5625 156.07812Q51.21875 155.51562 50.5 155.51562Q49.8125 155.51562 49.46875 156.04688Q49.140625 156.57812 49.125 157.71875L49.125 160.14062Q49.125 161.35938 49.453125 161.95312Q49.78125 162.54688 50.515625 162.54688Q51.25 162.54688 51.5625 161.98438Q51.890625 161.40625 51.90625 160.23438L51.90625 157.875Z" fill-rule="nonzero"/><path fill="#000000" d="M44.53125 125.287506L44.53125 126.92813L44.34375 126.92813Q43.0 126.943756 42.1875 127.61563Q41.375 128.2875 41.203125 129.49063Q42.0 128.69376 43.203125 128.69376Q44.515625 128.69376 45.28125 129.63126Q46.046875 130.55313 46.046875 132.06876Q46.046875 133.0375 45.625 133.83438Q45.203125 134.61563 44.421875 135.05313Q43.65625 135.49063 42.6875 135.49063Q41.125 135.49063 40.15625 134.39688Q39.1875 133.30313 39.1875 131.475L39.1875 130.75626Q39.1875 129.14688 39.796875 127.912506Q40.40625 126.662506 41.546875 125.99063Q42.703125 125.30313 44.203125 125.287506L44.53125 125.287506ZM42.609375 130.27188Q42.125 130.27188 41.734375 130.52188Q41.34375 130.77188 41.171875 131.19376L41.171875 131.7875Q41.171875 132.77188 41.5625 133.33438Q41.953125 133.89688 42.65625 133.89688Q43.28125 133.89688 43.671875 133.39688Q44.078125 132.88126 44.078125 132.08438Q44.078125 131.27188 43.671875 130.77188Q43.28125 130.27188 42.609375 130.27188ZM53.875 131.24063Q53.875 133.30313 53.015625 134.39688Q52.171875 135.49063 50.515625 135.49063Q48.890625 135.49063 48.03125 134.4125Q47.171875 133.33438 47.15625 131.33438L47.15625 129.50626Q47.15625 127.412506 48.015625 126.33438Q48.875 125.256256 50.5 125.256256Q52.140625 125.256256 53.0 126.33438Q53.859375 127.39688 53.875 129.39688L53.875 131.24063ZM51.90625 129.225Q51.90625 127.99063 51.5625 127.42813Q51.21875 126.86563 50.5 126.86563Q49.8125 126.86563 49.46875 127.39688Q49.140625 127.92813 49.125 129.06876L49.125 131.49063Q49.125 132.70938 49.453125 133.30313Q49.78125 133.89688 50.515625 133.89688Q51.25 133.89688 51.5625 133.33438Q51.890625 132.75626 51.90625 131.58438L51.90625 129.225Z" fill-rule="nonzero"/><path fill="#000000" d="M45.9375 97.85625L42.09375 106.7L40.015625 106.7L43.859375 98.34062L38.921875 98.34062L38.921875 96.74687L45.9375 96.74687L45.9375 97.85625ZM53.875 102.59062Q53.875 104.65312 53.015625 105.74687Q52.171875 106.84062 50.515625 106.84062Q48.890625 106.84062 48.03125 105.7625Q47.171875 104.68437 47.15625 102.68437L47.15625 100.85625Q47.15625 98.7625 48.015625 97.68437Q48.875 96.60625 50.5 96.60625Q52.140625 96.60625 53.0 97.68437Q53.859375 98.74687 53.875 100.74687L53.875 102.59062ZM51.90625 100.575Q51.90625 99.34062 51.5625 98.77812Q51.21875 98.21562 50.5 98.21562Q49.8125 98.21562 49.46875 98.74687Q49.140625 99.27812 49.125 100.41875L49.125 102.84062Q49.125 104.05937 49.453125 104.65312Q49.78125 105.24687 50.515625 105.24687Q51.25 105.24687 51.5625 104.68437Q51.890625 104.10625 51.90625 102.93437L51.90625 100.575Z" fill-rule="nonzero"/><path fill="#000000" d="M45.671875 70.7375Q45.671875 71.47188 45.296875 72.03438Q44.9375 72.58125 44.296875 72.925Q45.03125 73.26875 45.453125 73.87813Q45.875 74.4875 45.875 75.31563Q45.875 76.64375 44.96875 77.425Q44.078125 78.19063 42.515625 78.19063Q40.96875 78.19063 40.0625 77.425Q39.15625 76.64375 39.15625 75.31563Q39.15625 74.4875 39.578125 73.87813Q40.0 73.26875 40.71875 72.925Q40.078125 72.58125 39.71875 72.03438Q39.359375 71.47188 39.359375 70.7375Q39.359375 69.47188 40.203125 68.72188Q41.0625 67.95625 42.515625 67.95625Q43.96875 67.95625 44.8125 68.70625Q45.671875 69.45625 45.671875 70.7375ZM43.890625 75.175Q43.890625 74.53438 43.515625 74.14375Q43.140625 73.75313 42.5 73.75313Q41.875 73.75313 41.5 74.14375Q41.125 74.51875 41.125 75.175Q41.125 75.81563 41.484375 76.20625Q41.859375 76.59688 42.515625 76.59688Q43.15625 76.59688 43.515625 76.22188Q43.890625 75.84688 43.890625 75.175ZM43.6875 70.83125Q43.6875 70.25313 43.375 69.90938Q43.078125 69.55 42.515625 69.55Q41.953125 69.55 41.640625 69.89375Q41.34375 70.2375 41.34375 70.83125Q41.34375 71.425 41.640625 71.8Q41.953125 72.15938 42.515625 72.15938Q43.078125 72.15938 43.375 71.8Q43.6875 71.425 43.6875 70.83125ZM53.875 73.94063Q53.875 76.00313 53.015625 77.09688Q52.171875 78.19063 50.515625 78.19063Q48.890625 78.19063 48.03125 77.1125Q47.171875 76.03438 47.15625 74.03438L47.15625 72.20625Q47.15625 70.1125 48.015625 69.03438Q48.875 67.95625 50.5 67.95625Q52.140625 67.95625 53.0 69.03438Q53.859375 70.09688 53.875 72.09688L53.875 73.94063ZM51.90625 71.925Q51.90625 70.69063 51.5625 70.12813Q51.21875 69.56563 50.5 69.56563Q49.8125 69.56563 49.46875 70.09688Q49.140625 70.62813 49.125 71.76875L49.125 74.19063Q49.125 75.40938 49.453125 76.00313Q49.78125 76.59688 50.515625 76.59688Q51.25 76.59688 51.5625 76.03438Q51.890625 75.45625 51.90625 74.28438L51.90625 71.925Z" fill-rule="nonzero"/><path fill="#000000" d="M43.796875 45.415627Q43.03125 46.18125 42.0 46.18125Q40.671875 46.18125 39.875 45.275Q39.09375 44.36875 39.09375 42.8375Q39.09375 41.853127 39.515625 41.040627Q39.9375 40.2125 40.703125 39.759377Q41.46875 39.30625 42.4375 39.30625Q43.421875 39.30625 44.1875 39.80625Q44.953125 40.290627 45.375 41.2125Q45.796875 42.134377 45.796875 43.321877L45.796875 44.05625Q45.796875 46.55625 44.5625 47.978127Q43.328125 49.4 41.0625 49.49375L40.578125 49.49375L40.578125 47.853127L41.015625 47.8375Q43.59375 47.728127 43.796875 45.415627ZM42.484375 44.665627Q42.953125 44.665627 43.296875 44.43125Q43.640625 44.18125 43.828125 43.821877L43.828125 43.009377Q43.828125 42.009377 43.4375 41.4625Q43.0625 40.9 42.421875 40.9Q41.828125 40.9 41.4375 41.446877Q41.0625 41.99375 41.0625 42.80625Q41.0625 43.61875 41.421875 44.15Q41.796875 44.665627 42.484375 44.665627ZM53.875 45.290627Q53.875 47.353127 53.015625 48.446877Q52.171875 49.540627 50.515625 49.540627Q48.890625 49.540627 48.03125 48.4625Q47.171875 47.384377 47.15625 45.384377L47.15625 43.55625Q47.15625 41.4625 48.015625 40.384377Q48.875 39.30625 50.5 39.30625Q52.140625 39.30625 53.0 40.384377Q53.859375 41.446877 53.875 43.446877L53.875 45.290627ZM51.90625 43.275Q51.90625 42.040627 51.5625 41.478127Q51.21875 40.915627 50.5 40.915627Q49.8125 40.915627 49.46875 41.446877Q49.140625 41.978127 49.125 43.11875L49.125 45.540627Q49.125 46.759377 49.453125 47.353127Q49.78125 47.946877 50.515625 47.946877Q51.25 47.946877 51.5625 47.384377Q51.890625 46.80625 51.90625 45.634377L51.90625 43.275Z" fill-rule="nonzero"/><path fill="#000000" d="M35.96875 20.75L34.0 20.75L34.0 13.140625L31.640625 13.859375L31.640625 12.265625L35.765625 10.78125L35.96875 10.78125L35.96875 20.75ZM45.875 16.640625Q45.875 18.703125 45.015625 19.796875Q44.171875 20.890625 42.515625 20.890625Q40.890625 20.890625 40.03125 19.8125Q39.171875 18.734375 39.15625 16.734375L39.15625 14.90625Q39.15625 12.8125 40.015625 11.734375Q40.875 10.65625 42.5 10.65625Q44.140625 10.65625 45.0 11.734375Q45.859375 12.796875 45.875 14.796875L45.875 16.640625ZM43.90625 14.625Q43.90625 13.390625 43.5625 12.828125Q43.21875 12.265625 42.5 12.265625Q41.8125 12.265625 41.46875 12.796875Q41.140625 13.328125 41.125 14.46875L41.125 16.890625Q41.125 18.109375 41.453125 18.703125Q41.78125 19.296875 42.515625 19.296875Q43.25 19.296875 43.5625 18.734375Q43.890625 18.15625 43.90625 16.984375L43.90625 14.625ZM53.875 16.640625Q53.875 18.703125 53.015625 19.796875Q52.171875 20.890625 50.515625 20.890625Q48.890625 20.890625 48.03125 19.8125Q47.171875 18.734375 47.15625 16.734375L47.15625 14.90625Q47.15625 12.8125 48.015625 11.734375Q48.875 10.65625 50.5 10.65625Q52.140625 10.65625 53.0 11.734375Q53.859375 12.796875 53.875 14.796875L53.875 16.640625ZM51.90625 14.625Q51.90625 13.390625 51.5625 12.828125Q51.21875 12.265625 50.5 12.265625Q49.8125 12.265625 49.46875 12.796875Q49.140625 13.328125 49.125 14.46875L49.125 16.890625Q49.125 18.109375 49.453125 18.703125Q49.78125 19.296875 50.515625 19.296875Q51.25 19.296875 51.5625 18.734375Q51.890625 18.15625 51.90625 16.984375L51.90625 14.625Z" fill-rule="nonzero"/><path fill="#000000" d="M187.71875 174.60938L188.29688 169.54688L193.875 169.54688L193.875 171.1875L189.92188 171.1875L189.67188 173.32812Q190.375 172.95312 191.17188 172.95312Q192.59375 172.95312 193.39062 173.84375Q194.20312 174.71875 194.20312 176.3125Q194.20312 177.26562 193.79688 178.03125Q193.39062 178.79688 192.625 179.21875Q191.875 179.64062 190.84375 179.64062Q189.9375 179.64062 189.15625 179.28125Q188.39062 178.90625 187.9375 178.25Q187.5 177.57812 187.46875 176.73438L189.42188 176.73438Q189.48438 177.35938 189.85938 177.70312Q190.23438 178.04688 190.82812 178.04688Q191.5 178.04688 191.85938 177.5625Q192.21875 177.07812 192.21875 176.20312Q192.21875 175.34375 191.79688 174.90625Q191.39062 174.45312 190.625 174.45312Q189.92188 174.45312 189.48438 174.8125L189.29688 175.0L187.71875 174.60938ZM202.125 175.39062Q202.125 177.45312 201.26562 178.54688Q200.42188 179.64062 198.76562 179.64062Q197.14062 179.64062 196.28125 178.5625Q195.42188 177.48438 195.40625 175.48438L195.40625 173.65625Q195.40625 171.5625 196.26562 170.48438Q197.125 169.40625 198.75 169.40625Q200.39062 169.40625 201.25 170.48438Q202.10938 171.54688 202.125 173.54688L202.125 175.39062ZM200.15625 173.375Q200.15625 172.14062 199.8125 171.57812Q199.46875 171.01562 198.75 171.01562Q198.0625 171.01562 197.71875 171.54688Q197.39062 172.07812 197.375 173.21875L197.375 175.64062Q197.375 176.85938 197.70312 177.45312Q198.03125 178.04688 198.76562 178.04688Q199.5 178.04688 199.8125 177.48438Q200.14062 176.90625 200.15625 175.73438L200.15625 173.375Z" fill-rule="nonzero"/><path fill="#000000" d="M166.13126 169.4375L166.13126 171.07812L165.94376 171.07812Q164.6 171.09375 163.7875 171.76562Q162.975 172.4375 162.80313 173.64062Q163.6 172.84375 164.80313 172.84375Q166.11563 172.84375 166.88126 173.78125Q167.64688 174.70312 167.64688 176.21875Q167.64688 177.1875 167.225 177.98438Q166.80313 178.76562 166.02188 179.20312Q165.25626 179.64062 164.2875 179.64062Q162.725 179.64062 161.75626 178.54688Q160.7875 177.45312 160.7875 175.625L160.7875 174.90625Q160.7875 173.29688 161.39688 172.0625Q162.00626 170.8125 163.14688 170.14062Q164.30313 169.45312 165.80313 169.4375L166.13126 169.4375ZM164.20938 174.42188Q163.725 174.42188 163.33438 174.67188Q162.94376 174.92188 162.77188 175.34375L162.77188 175.9375Q162.77188 176.92188 163.1625 177.48438Q163.55313 178.04688 164.25626 178.04688Q164.88126 178.04688 165.27188 177.54688Q165.67813 177.03125 165.67813 176.23438Q165.67813 175.42188 165.27188 174.92188Q164.88126 174.42188 164.20938 174.42188ZM175.475 175.39062Q175.475 177.45312 174.61563 178.54688Q173.77188 179.64062 172.11563 179.64062Q170.49063 179.64062 169.63126 178.5625Q168.77188 177.48438 168.75626 175.48438L168.75626 173.65625Q168.75626 171.5625 169.61563 170.48438Q170.475 169.40625 172.1 169.40625Q173.74063 169.40625 174.6 170.48438Q175.45938 171.54688 175.475 173.54688L175.475 175.39062ZM173.50626 173.375Q173.50626 172.14062 173.1625 171.57812Q172.81876 171.01562 172.1 171.01562Q171.4125 171.01562 171.06876 171.54688Q170.74063 172.07812 170.725 173.21875L170.725 175.64062Q170.725 176.85938 171.05313 177.45312Q171.38126 178.04688 172.11563 178.04688Q172.85 178.04688 173.1625 177.48438Q173.49063 176.90625 173.50626 175.73438L173.50626 173.375Z" fill-rule="nonzero"/><path fill="#000000" d="M140.8875 170.65625L137.04375 179.5L134.96562 179.5L138.80937 171.14062L133.87187 171.14062L133.87187 169.54688L140.8875 169.54688L140.8875 170.65625ZM148.825 175.39062Q148.825 177.45312 147.96562 178.54688Q147.12187 179.64062 145.46562 179.64062Q143.84062 179.64062 142.98125 178.5625Q142.12187 177.48438 142.10625 175.48438L142.10625 173.65625Q142.10625 171.5625 142.96562 170.48438Q143.825 169.40625 145.45 169.40625Q147.09062 169.40625 147.95 170.48438Q148.80937 171.54688 148.825 173.54688L148.825 175.39062ZM146.85625 173.375Q146.85625 172.14062 146.5125 171.57812Q146.16875 171.01562 145.45 171.01562Q144.7625 171.01562 144.41875 171.54688Q144.09062 172.07812 144.075 173.21875L144.075 175.64062Q144.075 176.85938 144.40312 177.45312Q144.73125 178.04688 145.46562 178.04688Q146.2 178.04688 146.5125 177.48438Q146.84062 176.90625 146.85625 175.73438L146.85625 173.375Z" fill-rule="nonzero"/><path fill="#000000" d="M113.97188 172.1875Q113.97188 172.92188 113.59688 173.48438Q113.2375 174.03125 112.59688 174.375Q113.33125 174.71875 113.75313 175.32812Q114.175 175.9375 114.175 176.76562Q114.175 178.09375 113.26875 178.875Q112.37813 179.64062 110.81563 179.64062Q109.26875 179.64062 108.3625 178.875Q107.45625 178.09375 107.45625 176.76562Q107.45625 175.9375 107.87813 175.32812Q108.3 174.71875 109.01875 174.375Q108.37813 174.03125 108.01875 173.48438Q107.65938 172.92188 107.65938 172.1875Q107.65938 170.92188 108.50313 170.17188Q109.3625 169.40625 110.81563 169.40625Q112.26875 169.40625 113.1125 170.15625Q113.97188 170.90625 113.97188 172.1875ZM112.19063 176.625Q112.19063 175.98438 111.81563 175.59375Q111.44063 175.20312 110.8 175.20312Q110.175 175.20312 109.8 175.59375Q109.425 175.96875 109.425 176.625Q109.425 177.26562 109.78438 177.65625Q110.15938 178.04688 110.81563 178.04688Q111.45625 178.04688 111.81563 177.67188Q112.19063 177.29688 112.19063 176.625ZM111.9875 172.28125Q111.9875 171.70312 111.675 171.35938Q111.37813 171.0 110.81563 171.0Q110.25313 171.0 109.94063 171.34375Q109.64375 171.6875 109.64375 172.28125Q109.64375 172.875 109.94063 173.25Q110.25313 173.60938 110.81563 173.60938Q111.37813 173.60938 111.675 173.25Q111.9875 172.875 111.9875 172.28125ZM122.175 175.39062Q122.175 177.45312 121.31563 178.54688Q120.47188 179.64062 118.81563 179.64062Q117.19063 179.64062 116.33125 178.5625Q115.47188 177.48438 115.45625 175.48438L115.45625 173.65625Q115.45625 171.5625 116.31563 170.48438Q117.175 169.40625 118.8 169.40625Q120.44063 169.40625 121.3 170.48438Q122.15938 171.54688 122.175 173.54688L122.175 175.39062ZM120.20625 173.375Q120.20625 172.14062 119.8625 171.57812Q119.51875 171.01562 118.8 171.01562Q118.1125 171.01562 117.76875 171.54688Q117.44063 172.07812 117.425 173.21875L117.425 175.64062Q117.425 176.85938 117.75313 177.45312Q118.08125 178.04688 118.81563 178.04688Q119.55 178.04688 119.8625 177.48438Q120.19063 176.90625 120.20625 175.73438L120.20625 173.375Z" fill-rule="nonzero"/><path fill="#000000" d="M85.44688 175.51562Q84.68125 176.28125 83.65 176.28125Q82.32188 176.28125 81.525 175.375Q80.74375 174.46875 80.74375 172.9375Q80.74375 171.95312 81.16563 171.14062Q81.5875 170.3125 82.35313 169.85938Q83.11875 169.40625 84.0875 169.40625Q85.07188 169.40625 85.8375 169.90625Q86.60313 170.39062 87.025 171.3125Q87.44688 172.23438 87.44688 173.42188L87.44688 174.15625Q87.44688 176.65625 86.2125 178.07812Q84.97813 179.5 82.7125 179.59375L82.22813 179.59375L82.22813 177.95312L82.66563 177.9375Q85.24375 177.82812 85.44688 175.51562ZM84.13438 174.76562Q84.60313 174.76562 84.94688 174.53125Q85.29063 174.28125 85.47813 173.92188L85.47813 173.10938Q85.47813 172.10938 85.0875 171.5625Q84.7125 171.0 84.07188 171.0Q83.47813 171.0 83.0875 171.54688Q82.7125 172.09375 82.7125 172.90625Q82.7125 173.71875 83.07188 174.25Q83.44688 174.76562 84.13438 174.76562ZM95.525 175.39062Q95.525 177.45312 94.66563 178.54688Q93.82188 179.64062 92.16563 179.64062Q90.54063 179.64062 89.68125 178.5625Q88.82188 177.48438 88.80625 175.48438L88.80625 173.65625Q88.80625 171.5625 89.66563 170.48438Q90.525 169.40625 92.15 169.40625Q93.79063 169.40625 94.65 170.48438Q95.50938 171.54688 95.525 173.54688L95.525 175.39062ZM93.55625 173.375Q93.55625 172.14062 93.2125 171.57812Q92.86875 171.01562 92.15 171.01562Q91.4625 171.01562 91.11875 171.54688Q90.79063 172.07812 90.775 173.21875L90.775 175.64062Q90.775 176.85938 91.10313 177.45312Q91.43125 178.04688 92.16563 178.04688Q92.9 178.04688 93.2125 177.48438Q93.54063 176.90625 93.55625 175.73438L93.55625 173.375Z" fill-rule="nonzero"/><path fill="#000000" d="M54.96875 179.5L53.0 179.5L53.0 171.89062L50.640625 172.60938L50.640625 171.01562L54.765625 169.53125L54.96875 169.53125L54.96875 179.5ZM64.875 175.39062Q64.875 177.45312 64.015625 178.54688Q63.171875 179.64062 61.515625 179.64062Q59.890625 179.64062 59.03125 178.5625Q58.171875 177.48438 58.15625 175.48438L58.15625 173.65625Q58.15625 171.5625 59.015625 170.48438Q59.875 169.40625 61.5 169.40625Q63.140625 169.40625 64.0 170.48438Q64.859375 171.54688 64.875 173.54688L64.875 175.39062ZM62.90625 173.375Q62.90625 172.14062 62.5625 171.57812Q62.21875 171.01562 61.5 171.01562Q60.8125 171.01562 60.46875 171.54688Q60.140625 172.07812 60.125 173.21875L60.125 175.64062Q60.125 176.85938 60.453125 177.45312Q60.78125 178.04688 61.515625 178.04688Q62.25 178.04688 62.5625 177.48438Q62.890625 176.90625 62.90625 175.73438L62.90625 173.375ZM72.875 175.39062Q72.875 177.45312 72.015625 178.54688Q71.171875 179.64062 69.515625 179.64062Q67.890625 179.64062 67.03125 178.5625Q66.171875 177.48438 66.15625 175.48438L66.15625 173.65625Q66.15625 171.5625 67.015625 170.48438Q67.875 169.40625 69.5 169.40625Q71.140625 169.40625 72.0 170.48438Q72.859375 171.54688 72.875 173.54688L72.875 175.39062ZM70.90625 173.375Q70.90625 172.14062 70.5625 171.57812Q70.21875 171.01562 69.5 171.01562Q68.8125 171.01562 68.46875 171.54688Q68.140625 172.07812 68.125 173.21875L68.125 175.64062Q68.125 176.85938 68.453125 177.45312Q68.78125 178.04688 69.515625 178.04688Q70.25 178.04688 70.5625 177.48438Q70.890625 176.90625 70.90625 175.73438L70.90625 173.375Z" fill-rule="nonzero"/></svg>