<svg version="1.1" viewBox="0.0 0.0 190.0 225.0" fill="none" stroke="none" stroke-linecap="square" stroke-miterlimit="10" width="190" height="225" xmlns:xlink="http://www.w3.org/1999/xlink" xmlns="http://www.w3.org/2000/svg"><path fill="#ffffff" d="M0 0L190.0 0L190.0 225.0L0 225.0L0 0Z" fill-rule="nonzero"/><path stroke="#333333" stroke-width="1.0" stroke-linecap="butt" d="M40.5 18.5L40.5 154.5" fill-rule="nonzero"/><path stroke="#cccccc" stroke-width="1.0" stroke-linecap="butt" d="M68.5 18.5L68.5 154.5" fill-rule="nonzero"/><path stroke="#cccccc" stroke-width="1.0" stroke-linecap="butt" d="M96.5 18.5L96.5 154.5" fill-rule="nonzero"/><path stroke="#cccccc" stroke-width="1.0" stroke-linecap="butt" d="M124.5 18.5L124.5 154.5" fill-rule="nonzero"/><path stroke="#cccccc" stroke-width="1.0" stroke-linecap="butt" d="M152.5 18.5L152.5 154.5" fill-rule="nonzero"/><path stroke="#cccccc" stroke-width="1.0" stroke-linecap="butt" d="M180.5 18.5L180.5 154.5" fill-rule="nonzero"/><path stroke="#cccccc" stroke-width="1.0" stroke-linecap="butt" d="M40.5 154.5L180.5 154.5" fill-rule="nonzero"/><path stroke="#cccccc" stroke-width="1.0" stroke-linecap="butt" d="M40.5 127.5L180.5 127.5" fill-rule="nonzero"/><path stroke="#cccccc" stroke-width="1.0" stroke-linecap="butt" d="M40.5 99.5L180.5 99.5" fill-rule="nonzero"/><path stroke="#cccccc" stroke-width="1.0" stroke-linecap="butt" d="M40.5 72.5L180.5 72.5" fill-rule="nonzero"/><path stroke="#cccccc" stroke-width="1.0" stroke-linecap="butt" d="M40.5 45.5L180.5 45.5" fill-rule="nonzero"/><path stroke="#cccccc" stroke-width="1.0" stroke-linecap="butt" d="M40.5 18.5L180.5 18.5" fill-rule="nonzero"/><clipPath id="id_0"><path d="M40.5 18.0L180.5 18.0L180.5 154.5L40.5 154.5L40.5 18.0Z" clip-rule="nonzero"/></clipPath><path stroke="#4285f4" stroke-width="4.0" stroke-linecap="butt" clip-path="url(#id_0)" d="M40.5 81.824684L68.5 70.49464L124.5 70.024315L180.5 71.83027" fill-rule="nonzero"/><path stroke="#ea4335" stroke-width="4.0" stroke-linecap="butt" clip-path="url(#id_0)" d="M40.5 79.981285L68.5 53.518326L124.5 50.01641L180.5 58.666313" fill-rule="nonzero"/><path stroke="#fbbc04" stroke-width="4.0" stroke-linecap="butt" clip-path="url(#id_0)" d="M40.5 46.177395L68.5 47.540806L124.5 41.172295L180.5 39.88048" fill-rule="nonzero"/><path fill="#000000" fill-opacity="0.0" clip-path="url(#id_0)" d="M43.5 81.824684C43.5 83.48154 42.156853 84.824684 40.5 84.824684C38.843147 84.824684 37.5 83.48154 37.5 81.824684C37.5 80.16783 38.843147 78.824684 40.5 78.824684C42.156853 78.824684 43.5 80.16783 43.5 81.824684Z" fill-rule="nonzero"/><path fill="#000000" fill-opacity="0.0" clip-path="url(#id_0)" d="M71.5 70.49464C71.5 72.15149 70.15685 73.49464 68.5 73.49464C66.84315 73.49464 65.5 72.15149 65.5 70.49464C65.5 68.83778 66.84315 67.49464 68.5 67.49464C70.15685 67.49464 71.5 68.83778 71.5 70.49464Z" fill-rule="nonzero"/><path fill="#000000" fill-opacity="0.0" clip-path="url(#id_0)" d="M127.5 70.024315C127.5 71.68117 126.15685 73.024315 124.5 73.024315C122.84315 73.024315 121.5 71.68117 121.5 70.024315C121.5 68.36746 122.84315 67.024315 124.5 67.024315C126.15685 67.024315 127.5 68.36746 127.5 70.024315Z" fill-rule="nonzero"/><path fill="#000000" fill-opacity="0.0" clip-path="url(#id_0)" d="M183.5 71.83027C183.5 73.48712 182.15686 74.83027 180.5 74.83027C178.84314 74.83027 177.5 73.48712 177.5 71.83027C177.5 70.173416 178.84314 68.83027 180.5 68.83027C182.15686 68.83027 183.5 70.173416 183.5 71.83027Z" fill-rule="nonzero"/><path fill="#000000" fill-opacity="0.0" clip-path="url(#id_0)" d="M43.5 79.981285C43.5 81.63814 42.156853 82.981285 40.5 82.981285C38.843147 82.981285 37.5 81.63814 37.5 79.981285C37.5 78.324425 38.843147 76.981285 40.5 76.981285C42.156853 76.981285 43.5 78.324425 43.5 79.981285Z" fill-rule="nonzero"/><path fill="#000000" fill-opacity="0.0" clip-path="url(#id_0)" d="M71.5 53.518326C71.5 55.175182 70.15685 56.518326 68.5 56.518326C66.84315 56.518326 65.5 55.175182 65.5 53.518326C65.5 51.861473 66.84315 50.518326 68.5 50.518326C70.15685 50.518326 71.5 51.861473 71.5 53.518326Z" fill-rule="nonzero"/><path fill="#000000" fill-opacity="0.0" clip-path="url(#id_0)" d="M127.5 50.01641C127.5 51.673264 126.15685 53.01641 124.5 53.01641C122.84315 53.01641 121.5 51.673264 121.5 50.01641C121.5 48.35956 122.84315 47.01641 124.5 47.01641C126.15685 47.01641 127.5 48.35956 127.5 50.01641Z" fill-rule="nonzero"/><path fill="#000000" fill-opacity="0.0" clip-path="url(#id_0)" d="M183.5 58.666313C183.5 60.323166 182.15686 61.666313 180.5 61.666313C178.84314 61.666313 177.5 60.323166 177.5 58.666313C177.5 57.009457 178.84314 55.666313 180.5 55.666313C182.15686 55.666313 183.5 57.009457 183.5 58.666313Z" fill-rule="nonzero"/><path fill="#000000" fill-opacity="0.0" clip-path="url(#id_0)" d="M43.5 46.177395C43.5 47.83425 42.156853 49.177395 40.5 49.177395C38.843147 49.177395 37.5 47.83425 37.5 46.177395C37.5 44.520542 38.843147 43.177395 40.5 43.177395C42.156853 43.177395 43.5 44.520542 43.5 46.177395Z" fill-rule="nonzero"/><path fill="#000000" fill-opacity="0.0" clip-path="url(#id_0)" d="M71.5 47.540806C71.5 49.197662 70.15685 50.540806 68.5 50.540806C66.84315 50.540806 65.5 49.197662 65.5 47.540806C65.5 45.883953 66.84315 44.540806 68.5 44.540806C70.15685 44.540806 71.5 45.883953 71.5 47.540806Z" fill-rule="nonzero"/><path fill="#000000" fill-opacity="0.0" clip-path="url(#id_0)" d="M127.5 41.172295C127.5 42.829147 126.15685 44.172295 124.5 44.172295C122.84315 44.172295 121.5 42.829147 121.5 41.172295C121.5 39.51544 122.84315 38.172295 124.5 38.172295C126.15685 38.172295 127.5 39.51544 127.5 41.172295Z" fill-rule="nonzero"/><path fill="#000000" fill-opacity="0.0" clip-path="url(#id_0)" d="M183.5 39.88048C183.5 41.537334 182.15686 42.88048 180.5 42.88048C178.84314 42.88048 177.5 41.537334 177.5 39.88048C177.5 38.223625 178.84314 36.88048 180.5 36.88048C182.15686 36.88048 183.5 38.223625 183.5 39.88048Z" fill-rule="nonzero"/><path fill="#000000" d="M95.484375 211.5L93.4375 211.5L89.4375 204.95312L89.4375 211.5L87.390625 211.5L87.390625 201.54688L89.4375 201.54688L93.4375 208.10938L93.4375 201.54688L95.484375 201.54688L95.484375 211.5ZM96.953125 207.73438Q96.953125 206.625 97.375 205.76562Q97.796875 204.90625 98.59375 204.4375Q99.390625 203.96875 100.4375 203.96875Q101.9375 203.96875 102.875 204.89062Q103.828125 205.79688 103.9375 207.375L103.953125 207.875Q103.953125 209.57812 103.0 210.60938Q102.0625 211.64062 100.453125 211.64062Q98.859375 211.64062 97.90625 210.60938Q96.953125 209.57812 96.953125 207.82812L96.953125 207.73438ZM98.921875 207.875Q98.921875 208.92188 99.3125 209.48438Q99.71875 210.04688 100.453125 210.04688Q101.171875 210.04688 101.578125 209.5Q101.984375 208.9375 101.984375 207.73438Q101.984375 206.70312 101.578125 206.14062Q101.171875 205.5625 100.4375 205.5625Q99.71875 205.5625 99.3125 206.125Q98.921875 206.6875 98.921875 207.875ZM107.34375 211.5L105.359375 211.5L105.359375 204.10938L107.34375 204.10938L107.34375 211.5ZM105.25 202.1875Q105.25 201.75 105.546875 201.46875Q105.84375 201.17188 106.359375 201.17188Q106.859375 201.17188 107.15625 201.46875Q107.453125 201.75 107.453125 202.1875Q107.453125 202.64062 107.15625 202.9375Q106.859375 203.21875 106.359375 203.21875Q105.859375 203.21875 105.546875 202.9375Q105.25 202.64062 105.25 202.1875ZM113.265625 209.45312Q113.265625 209.09375 112.90625 208.89062Q112.546875 208.67188 111.75 208.51562Q109.109375 207.95312 109.109375 206.26562Q109.109375 205.28125 109.921875 204.625Q110.75 203.96875 112.0625 203.96875Q113.484375 203.96875 114.328125 204.64062Q115.171875 205.29688 115.171875 206.35938L113.1875 206.35938Q113.1875 205.92188 112.90625 205.65625Q112.640625 205.375 112.0625 205.375Q111.5625 205.375 111.28125 205.60938Q111.015625 205.82812 111.015625 206.17188Q111.015625 206.5 111.328125 206.70312Q111.640625 206.90625 112.375 207.0625Q113.109375 207.20312 113.625 207.39062Q115.1875 207.95312 115.1875 209.375Q115.1875 210.39062 114.3125 211.01562Q113.453125 211.64062 112.078125 211.64062Q111.140625 211.64062 110.421875 211.3125Q109.703125 210.96875 109.296875 210.39062Q108.890625 209.8125 108.890625 209.14062L110.75 209.14062Q110.78125 209.67188 111.140625 209.95312Q111.515625 210.23438 112.109375 210.23438Q112.6875 210.23438 112.96875 210.01562Q113.265625 209.79688 113.265625 209.45312ZM119.65625 211.64062Q118.03125 211.64062 117.015625 210.64062Q116.0 209.64062 116.0 207.98438L116.0 207.78125Q116.0 206.67188 116.421875 205.79688Q116.859375 204.92188 117.640625 204.45312Q118.4375 203.96875 119.4375 203.96875Q120.96875 203.96875 121.828125 204.92188Q122.703125 205.875 122.703125 207.64062L122.703125 208.4375L118.0 208.4375Q118.09375 209.17188 118.578125 209.60938Q119.0625 210.04688 119.796875 210.04688Q120.9375 210.04688 121.578125 209.21875L122.546875 210.29688Q122.109375 210.9375 121.34375 211.29688Q120.59375 211.64062 119.65625 211.64062ZM119.4375 205.5625Q118.84375 205.5625 118.484375 205.96875Q118.125 206.35938 118.015625 207.09375L120.765625 207.09375L120.765625 206.9375Q120.75 206.28125 120.40625 205.92188Q120.0625 205.5625 119.4375 205.5625ZM134.35938 205.70312L132.625 205.70312Q133.82812 206.67188 133.82812 208.15625Q133.82812 209.71875 132.89062 210.6875Q131.96875 211.64062 130.4375 211.64062Q128.85938 211.64062 127.90625 210.625Q126.953125 209.59375 126.953125 207.82812L126.953125 207.73438Q126.953125 206.09375 127.890625 205.10938Q128.82812 204.10938 130.45312 204.10938L134.35938 204.10938L134.35938 205.70312ZM128.92188 207.875Q128.92188 208.9375 129.3125 209.5Q129.71875 210.04688 130.4375 210.04688Q131.10938 210.04688 131.46875 209.5Q131.84375 208.9375 131.84375 207.73438Q131.84375 206.76562 131.46875 206.23438Q131.10938 205.70312 130.4375 205.70312Q129.71875 205.70312 129.3125 206.21875Q128.92188 206.73438 128.92188 207.875Z" fill-rule="nonzero"/><path fill="#000000" d="M18.46875 154.10938L19.046875 149.04688L24.625 149.04688L24.625 150.6875L20.671875 150.6875L20.421875 152.82812Q21.125 152.45312 21.921875 152.45312Q23.34375 152.45312 24.140625 153.34375Q24.953125 154.21875 24.953125 155.8125Q24.953125 156.76562 24.546875 157.53125Q24.140625 158.29688 23.375 158.71875Q22.625 159.14062 21.59375 159.14062Q20.6875 159.14062 19.90625 158.78125Q19.140625 158.40625 18.6875 157.75Q18.25 157.07812 18.21875 156.23438L20.171875 156.23438Q20.234375 156.85938 20.609375 157.20312Q20.984375 157.54688 21.578125 157.54688Q22.25 157.54688 22.609375 157.0625Q22.96875 156.57812 22.96875 155.70312Q22.96875 154.84375 22.546875 154.40625Q22.140625 153.95312 21.375 153.95312Q20.671875 153.95312 20.234375 154.3125L20.046875 154.5L18.46875 154.10938ZM32.875 154.89062Q32.875 156.95312 32.015625 158.04688Q31.171875 159.14062 29.515625 159.14062Q27.890625 159.14062 27.03125 158.0625Q26.171875 156.98438 26.15625 154.98438L26.15625 153.15625Q26.15625 151.0625 27.015625 149.98438Q27.875 148.90625 29.5 148.90625Q31.140625 148.90625 32.0 149.98438Q32.859375 151.04688 32.875 153.04688L32.875 154.89062ZM30.90625 152.875Q30.90625 151.64062 30.5625 151.07812Q30.21875 150.51562 29.5 150.51562Q28.8125 150.51562 28.46875 151.04688Q28.140625 151.57812 28.125 152.71875L28.125 155.14062Q28.125 156.35938 28.453125 156.95312Q28.78125 157.54688 29.515625 157.54688Q30.25 157.54688 30.5625 156.98438Q30.890625 156.40625 30.90625 155.23438L30.90625 152.875Z" fill-rule="nonzero"/><path fill="#000000" d="M23.53125 121.6375L23.53125 123.27812L23.34375 123.27812Q22.0 123.29375 21.1875 123.96562Q20.375 124.6375 20.203125 125.84062Q21.0 125.04375 22.203125 125.04375Q23.515625 125.04375 24.28125 125.98125Q25.046875 126.90312 25.046875 128.41875Q25.046875 129.3875 24.625 130.18437Q24.203125 130.96562 23.421875 131.40312Q22.65625 131.84062 21.6875 131.84062Q20.125 131.84062 19.15625 130.74687Q18.1875 129.65312 18.1875 127.825L18.1875 127.10625Q18.1875 125.49687 18.796875 124.2625Q19.40625 123.0125 20.546875 122.34062Q21.703125 121.65312 23.203125 121.6375L23.53125 121.6375ZM21.609375 126.62187Q21.125 126.62187 20.734375 126.87187Q20.34375 127.12187 20.171875 127.54375L20.171875 128.1375Q20.171875 129.12187 20.5625 129.68437Q20.953125 130.24687 21.65625 130.24687Q22.28125 130.24687 22.671875 129.74687Q23.078125 129.23125 23.078125 128.43437Q23.078125 127.62187 22.671875 127.12187Q22.28125 126.62187 21.609375 126.62187ZM32.875 127.59062Q32.875 129.65312 32.015625 130.74687Q31.171875 131.84062 29.515625 131.84062Q27.890625 131.84062 27.03125 130.7625Q26.171875 129.68437 26.15625 127.68437L26.15625 125.85625Q26.15625 123.7625 27.015625 122.68437Q27.875 121.60625 29.5 121.60625Q31.140625 121.60625 32.0 122.68437Q32.859375 123.74687 32.875 125.74687L32.875 127.59062ZM30.90625 125.575Q30.90625 124.34062 30.5625 123.77812Q30.21875 123.21562 29.5 123.21562Q28.8125 123.21562 28.46875 123.74687Q28.140625 124.27812 28.125 125.41875L28.125 127.84062Q28.125 129.05937 28.453125 129.65312Q28.78125 130.24687 29.515625 130.24687Q30.25 130.24687 30.5625 129.68437Q30.890625 129.10625 30.90625 127.93437L30.90625 125.575Z" fill-rule="nonzero"/><path fill="#000000" d="M24.9375 95.55625L21.09375 104.4L19.015625 104.4L22.859375 96.04063L17.921875 96.04063L17.921875 94.44688L24.9375 94.44688L24.9375 95.55625ZM32.875 100.29063Q32.875 102.35313 32.015625 103.44688Q31.171875 104.54063 29.515625 104.54063Q27.890625 104.54063 27.03125 103.4625Q26.171875 102.38438 26.15625 100.38438L26.15625 98.55625Q26.15625 96.4625 27.015625 95.38438Q27.875 94.30625 29.5 94.30625Q31.140625 94.30625 32.0 95.38438Q32.859375 96.44688 32.875 98.44688L32.875 100.29063ZM30.90625 98.275Q30.90625 97.04063 30.5625 96.47813Q30.21875 95.91563 29.5 95.91563Q28.8125 95.91563 28.46875 96.44688Q28.140625 96.97813 28.125 98.11875L28.125 100.54063Q28.125 101.75938 28.453125 102.35313Q28.78125 102.94688 29.515625 102.94688Q30.25 102.94688 30.5625 102.38438Q30.890625 101.80625 30.90625 100.63438L30.90625 98.275Z" fill-rule="nonzero"/><path fill="#000000" d="M24.671875 69.7875Q24.671875 70.52187 24.296875 71.08437Q23.9375 71.63125 23.296875 71.975Q24.03125 72.31875 24.453125 72.92812Q24.875 73.5375 24.875 74.36562Q24.875 75.69375 23.96875 76.475Q23.078125 77.24062 21.515625 77.24062Q19.96875 77.24062 19.0625 76.475Q18.15625 75.69375 18.15625 74.36562Q18.15625 73.5375 18.578125 72.92812Q19.0 72.31875 19.71875 71.975Q19.078125 71.63125 18.71875 71.08437Q18.359375 70.52187 18.359375 69.7875Q18.359375 68.52187 19.203125 67.77187Q20.0625 67.00625 21.515625 67.00625Q22.96875 67.00625 23.8125 67.75625Q24.671875 68.50625 24.671875 69.7875ZM22.890625 74.225Q22.890625 73.58437 22.515625 73.19375Q22.140625 72.80312 21.5 72.80312Q20.875 72.80312 20.5 73.19375Q20.125 73.56875 20.125 74.225Q20.125 74.86562 20.484375 75.25625Q20.859375 75.64687 21.515625 75.64687Q22.15625 75.64687 22.515625 75.27187Q22.890625 74.89687 22.890625 74.225ZM22.6875 69.88125Q22.6875 69.30312 22.375 68.95937Q22.078125 68.6 21.515625 68.6Q20.953125 68.6 20.640625 68.94375Q20.34375 69.2875 20.34375 69.88125Q20.34375 70.475 20.640625 70.85Q20.953125 71.20937 21.515625 71.20937Q22.078125 71.20937 22.375 70.85Q22.6875 70.475 22.6875 69.88125ZM32.875 72.99062Q32.875 75.05312 32.015625 76.14687Q31.171875 77.24062 29.515625 77.24062Q27.890625 77.24062 27.03125 76.1625Q26.171875 75.08437 26.15625 73.08437L26.15625 71.25625Q26.15625 69.1625 27.015625 68.08437Q27.875 67.00625 29.5 67.00625Q31.140625 67.00625 32.0 68.08437Q32.859375 69.14687 32.875 71.14687L32.875 72.99062ZM30.90625 70.975Q30.90625 69.74062 30.5625 69.17812Q30.21875 68.61562 29.5 68.61562Q28.8125 68.61562 28.46875 69.14687Q28.140625 69.67812 28.125 70.81875L28.125 73.24062Q28.125 74.45937 28.453125 75.05312Q28.78125 75.64687 29.515625 75.64687Q30.25 75.64687 30.5625 75.08437Q30.890625 74.50625 30.90625 73.33437L30.90625 70.975Z" fill-rule="nonzero"/><path fill="#000000" d="M22.796875 45.815624Q22.03125 46.58125 21.0 46.58125Q19.671875 46.58125 18.875 45.675Q18.09375 44.76875 18.09375 43.2375Q18.09375 42.253124 18.515625 41.440624Q18.9375 40.6125 19.703125 40.159374Q20.46875 39.70625 21.4375 39.70625Q22.421875 39.70625 23.1875 40.20625Q23.953125 40.690624 24.375 41.6125Q24.796875 42.534374 24.796875 43.721874L24.796875 44.45625Q24.796875 46.95625 23.5625 48.378124Q22.328125 49.8 20.0625 49.89375L19.578125 49.89375L19.578125 48.253124L20.015625 48.2375Q22.59375 48.128124 22.796875 45.815624ZM21.484375 45.065624Q21.953125 45.065624 22.296875 44.83125Q22.640625 44.58125 22.828125 44.221874L22.828125 43.409374Q22.828125 42.409374 22.4375 41.8625Q22.0625 41.3 21.421875 41.3Q20.828125 41.3 20.4375 41.846874Q20.0625 42.39375 20.0625 43.20625Q20.0625 44.01875 20.421875 44.55Q20.796875 45.065624 21.484375 45.065624ZM32.875 45.690624Q32.875 47.753124 32.015625 48.846874Q31.171875 49.940624 29.515625 49.940624Q27.890625 49.940624 27.03125 48.8625Q26.171875 47.784374 26.15625 45.784374L26.15625 43.95625Q26.15625 41.8625 27.015625 40.784374Q27.875 39.70625 29.5 39.70625Q31.140625 39.70625 32.0 40.784374Q32.859375 41.846874 32.875 43.846874L32.875 45.690624ZM30.90625 43.675Q30.90625 42.440624 30.5625 41.878124Q30.21875 41.315624 29.5 41.315624Q28.8125 41.315624 28.46875 41.846874Q28.140625 42.378124 28.125 43.51875L28.125 45.940624Q28.125 47.159374 28.453125 47.753124Q28.78125 48.346874 29.515625 48.346874Q30.25 48.346874 30.5625 47.784374Q30.890625 47.20625 30.90625 46.034374L30.90625 43.675Z" fill-rule="nonzero"/><path fill="#000000" d="M14.96875 22.5L13.0 22.5L13.0 14.890625L10.640625 15.609375L10.640625 14.015625L14.765625 12.53125L14.96875 12.53125L14.96875 22.5ZM24.875 18.390625Q24.875 20.453125 24.015625 21.546875Q23.171875 22.640625 21.515625 22.640625Q19.890625 22.640625 19.03125 21.5625Q18.171875 20.484375 18.15625 18.484375L18.15625 16.65625Q18.15625 14.5625 19.015625 13.484375Q19.875 12.40625 21.5 12.40625Q23.140625 12.40625 24.0 13.484375Q24.859375 14.546875 24.875 16.546875L24.875 18.390625ZM22.90625 16.375Q22.90625 15.140625 22.5625 14.578125Q22.21875 14.015625 21.5 14.015625Q20.8125 14.015625 20.46875 14.546875Q20.140625 15.078125 20.125 16.21875L20.125 18.640625Q20.125 19.859375 20.453125 20.453125Q20.78125 21.046875 21.515625 21.046875Q22.25 21.046875 22.5625 20.484375Q22.890625 19.90625 22.90625 18.734375L22.90625 16.375ZM32.875 18.390625Q32.875 20.453125 32.015625 21.546875Q31.171875 22.640625 29.515625 22.640625Q27.890625 22.640625 27.03125 21.5625Q26.171875 20.484375 26.15625 18.484375L26.15625 16.65625Q26.15625 14.5625 27.015625 13.484375Q27.875 12.40625 29.5 12.40625Q31.140625 12.40625 32.0 13.484375Q32.859375 14.546875 32.875 16.546875L32.875 18.390625ZM30.90625 16.375Q30.90625 15.140625 30.5625 14.578125Q30.21875 14.015625 29.5 14.015625Q28.8125 14.015625 28.46875 14.546875Q28.140625 15.078125 28.125 16.21875L28.125 18.640625Q28.125 19.859375 28.453125 20.453125Q28.78125 21.046875 29.515625 21.046875Q30.25 21.046875 30.5625 20.484375Q30.890625 19.90625 30.90625 18.734375L30.90625 16.375Z" fill-rule="nonzero"/><path fill="#000000" d="M40.34375 164.4375Q41.796875 164.4375 42.625 165.46875Q43.59375 166.70312 43.59375 169.5625Q43.59375 172.40625 42.609375 173.64062Q41.796875 174.67188 40.34375 174.67188Q38.875 174.67188 37.984375 173.54688Q37.09375 172.42188 37.09375 169.53125Q37.09375 166.70312 38.078125 165.46875Q38.890625 164.4375 40.34375 164.4375ZM40.34375 166.03125Q40.0 166.03125 39.71875 166.25Q39.453125 166.46875 39.296875 167.04688Q39.09375 167.79688 39.09375 169.5625Q39.09375 171.32812 39.265625 171.98438Q39.453125 172.64062 39.71875 172.85938Q40.0 173.07812 40.34375 173.07812Q40.6875 173.07812 40.953125 172.85938Q41.234375 172.64062 41.390625 172.0625Q41.59375 171.32812 41.59375 169.5625Q41.59375 167.79688 41.40625 167.14062Q41.234375 166.46875 40.953125 166.25Q40.6875 166.03125 40.34375 166.03125Z" fill-rule="nonzero"/><path fill="#000000" d="M70.015625 174.5L68.09375 174.5L68.09375 167.26562Q67.03125 168.25 65.609375 168.71875L65.609375 166.96875Q66.359375 166.73438 67.234375 166.04688Q68.125 165.35938 68.453125 164.4375L70.015625 164.4375L70.015625 174.5Z" fill-rule="nonzero"/><path fill="#000000" d="M99.578125 172.71875L99.578125 174.5L92.84375 174.5Q92.953125 173.48438 93.5 172.57812Q94.046875 171.67188 95.671875 170.17188Q96.96875 168.96875 97.265625 168.53125Q97.65625 167.9375 97.65625 167.35938Q97.65625 166.71875 97.3125 166.375Q96.96875 166.03125 96.359375 166.03125Q95.75 166.03125 95.390625 166.39062Q95.046875 166.75 94.984375 167.59375L93.078125 167.40625Q93.25 165.8125 94.140625 165.125Q95.046875 164.4375 96.40625 164.4375Q97.890625 164.4375 98.734375 165.23438Q99.578125 166.03125 99.578125 167.21875Q99.578125 167.90625 99.328125 168.51562Q99.09375 169.125 98.578125 169.79688Q98.21875 170.23438 97.3125 171.07812Q96.40625 171.90625 96.15625 172.1875Q95.921875 172.45312 95.765625 172.71875L99.578125 172.71875Z" fill-rule="nonzero"/><path fill="#000000" d="M121.03125 171.84375L122.890625 171.60938Q122.96875 172.32812 123.359375 172.70312Q123.75 173.07812 124.3125 173.07812Q124.90625 173.07812 125.3125 172.625Q125.71875 172.17188 125.71875 171.40625Q125.71875 170.6875 125.328125 170.26562Q124.9375 169.84375 124.375 169.84375Q124.0 169.84375 123.5 169.98438L123.703125 168.42188Q124.484375 168.4375 124.890625 168.07812Q125.3125 167.71875 125.3125 167.125Q125.3125 166.625 125.0 166.32812Q124.703125 166.01562 124.203125 166.01562Q123.71875 166.01562 123.359375 166.35938Q123.015625 166.70312 122.9375 167.35938L121.171875 167.0625Q121.359375 166.14062 121.71875 165.60938Q122.09375 165.0625 122.765625 164.75Q123.4375 164.4375 124.265625 164.4375Q125.671875 164.4375 126.53125 165.34375Q127.234375 166.07812 127.234375 167.0Q127.234375 168.32812 125.796875 169.10938Q126.65625 169.29688 127.171875 169.9375Q127.6875 170.57812 127.6875 171.48438Q127.6875 172.8125 126.71875 173.75Q125.75 174.67188 124.328125 174.67188Q122.96875 174.67188 122.0625 173.89062Q121.171875 173.10938 121.03125 171.84375Z" fill-rule="nonzero"/><path fill="#000000" d="M152.85938 174.5L152.85938 172.48438L148.76562 172.48438L148.76562 170.79688L153.10938 164.4375L154.71875 164.4375L154.71875 170.79688L155.96875 170.79688L155.96875 172.48438L154.71875 172.48438L154.71875 174.5L152.85938 174.5ZM152.85938 170.79688L152.85938 167.375L150.5625 170.79688L152.85938 170.79688Z" fill-rule="nonzero"/><path fill="#000000" d="M177.125 171.92188L179.03125 171.71875Q179.125 172.375 179.51562 172.75Q179.92188 173.125 180.45312 173.125Q181.04688 173.125 181.46875 172.64062Q181.89062 172.15625 181.89062 171.17188Q181.89062 170.25 181.46875 169.79688Q181.0625 169.32812 180.39062 169.32812Q179.5625 169.32812 178.90625 170.0625L177.35938 169.82812L178.34375 164.60938L183.42188 164.60938L183.42188 166.40625L179.79688 166.40625L179.5 168.10938Q180.14062 167.79688 180.8125 167.79688Q182.07812 167.79688 182.96875 168.73438Q183.85938 169.65625 183.85938 171.14062Q183.85938 172.375 183.14062 173.34375Q182.17188 174.67188 180.4375 174.67188Q179.04688 174.67188 178.17188 173.9375Q177.29688 173.1875 177.125 171.92188Z" fill-rule="nonzero"/></svg>