<?xml version="1.0" encoding="UTF-8" standalone="no"?>
<svg
   version="1.1"
   viewBox="0 0 238.12936 25.183331"
   fill="none"
   stroke="none"
   stroke-linecap="square"
   stroke-miterlimit="10"
   width="238.12936"
   height="25.183331"
   id="svg40"
   sodipodi:docname="perturbations_legend.svg"
   inkscape:version="1.3.1 (9b9bdc1480, 2023-11-25, custom)"
   xmlns:inkscape="http://www.inkscape.org/namespaces/inkscape"
   xmlns:sodipodi="http://sodipodi.sourceforge.net/DTD/sodipodi-0.dtd"
   xmlns="http://www.w3.org/2000/svg"
   xmlns:svg="http://www.w3.org/2000/svg">
  <defs
     id="defs40" />
  <sodipodi:namedview
     id="namedview40"
     pagecolor="#505050"
     bordercolor="#eeeeee"
     borderopacity="1"
     inkscape:showpageshadow="0"
     inkscape:pageopacity="0"
     inkscape:pagecheckerboard="0"
     inkscape:deskcolor="#505050"
     inkscape:zoom="4.9831933"
     inkscape:cx="155.52277"
     inkscape:cy="-23.077572"
     inkscape:window-width="1868"
     inkscape:window-height="1048"
     inkscape:window-x="0"
     inkscape:window-y="0"
     inkscape:window-maximized="1"
     inkscape:current-layer="svg40" />
  <path
     fill="#ffffff"
     d="M 0.28379,0 H 238.12937 L 237.72802,24.61574 0,25.18333 Z"
     fill-rule="nonzero"
     id="path1"
     sodipodi:nodetypes="ccccc" />
  <clipPath
     id="id_0">
    <path
       d="m 43.35,20.85 h 420.3 V 147.41667 H 43.35 Z"
       clip-rule="nonzero"
       id="path13" />
  </clipPath>
  <path
     stroke="#4285f4"
     stroke-width="4"
     stroke-linecap="butt"
     d="m 3.83004,11.42825 h 12"
     fill-rule="nonzero"
     id="path35" />
  <path
     fill="#1a1a1a"
     d="M 24.72066,15.92825 V 5.97512 h 3.0625 q 1.3125,0 2.34376,0.59375 1.03124,0.59375 1.60937,1.6875 0.59375,1.07812 0.59375,2.46875 v 0.45313 q 0,1.39062 -0.57812,2.46874 -0.5625,1.07813 -1.60938,1.6875 -1.03125,0.59376 -2.34375,0.59376 z m 2.04688,-8.29688 v 6.65625 h 1 q 1.20312,0 1.82812,-0.78125 0.64063,-0.79688 0.65626,-2.26562 v -0.51563 q 0,-1.53125 -0.64063,-2.3125 -0.625,-0.78125 -1.82813,-0.78125 z m 9.625,-1.65625 2.5625,7.21875 2.54688,-7.21875 h 2.6875 v 9.95313 h -2.0625 v -2.71876 l 0.21874,-4.70312 -2.6875,7.42188 h -1.40624 l -2.6875,-7.40626 0.20312,4.6875 v 2.71876 H 33.72066 V 5.97512 Z m 11.5,9.95313 H 45.84566 V 5.97512 h 2.04688 z m 1.82812,0 V 5.97512 h 3.0625 q 1.3125,0 2.34376,0.59375 1.03124,0.59375 1.60937,1.6875 0.59375,1.07812 0.59375,2.46875 v 0.45313 q 0,1.39062 -0.57812,2.46874 -0.5625,1.07813 -1.60938,1.6875 -1.03125,0.59376 -2.34375,0.59376 z m 2.04688,-8.29688 v 6.65625 h 1 q 1.20312,0 1.82812,-0.78125 0.64063,-0.79688 0.65626,-2.26562 v -0.51563 q 0,-1.53125 -0.64063,-2.3125 -0.625,-0.78125 -1.82813,-0.78125 z"
     fill-rule="nonzero"
     id="path36" />
  <path
     stroke="#ea4335"
     stroke-width="4"
     stroke-linecap="butt"
     d="m 73.83004,11.42825 h 12"
     fill-rule="nonzero"
     id="path37" />
  <path
     fill="#1a1a1a"
     d="m 98.40816,12.28762 h -1.64062 v 3.64063 H 94.72066 V 5.97512 h 3.70313 q 1.75,0 2.70313,0.79687 0.96874,0.78126 0.96874,2.20313 0,1.03125 -0.4375,1.71875 -0.4375,0.67188 -1.34374,1.07812 l 2.15624,4.0625 v 0.0938 h -2.20312 z m -1.64062,-1.67187 h 1.65625 q 0.76563,0 1.1875,-0.39063 0.4375,-0.39063 0.4375,-1.07813 0,-0.70312 -0.40625,-1.10937 -0.39062,-0.40625 -1.21875,-0.40625 h -1.65625 z m 9.125,5.3125 h -2.04688 V 5.97512 h 2.04688 z m 9.92188,0 h -2.04688 l -4,-6.54688 v 6.54688 h -2.04688 V 5.97512 h 2.04688 l 4,6.5625 v -6.5625 h 2.04688 z m 7.89062,-4.3125 h -3.9375 v 2.67187 h 4.625 v 1.64063 h -6.67188 V 5.97512 h 6.65626 v 1.65625 h -4.60938 v 2.375 h 3.9375 z"
     fill-rule="nonzero"
     id="path38" />
  <path
     stroke="#fbbc04"
     stroke-width="4"
     stroke-linecap="butt"
     d="m 140.83004,11.42825 h 12"
     fill-rule="nonzero"
     id="path39" />
  <path
     fill="#1a1a1a"
     d="m 166.87692,13.31887 q 0,-0.57812 -0.40626,-0.89062 -0.40624,-0.3125 -1.48437,-0.65626 -1.0625,-0.34374 -1.6875,-0.6875 -1.6875,-0.90624 -1.6875,-2.46874 0,-0.79688 0.45313,-1.42188 0.45312,-0.64062 1.29687,-1 0.85937,-0.35938 1.92187,-0.35938 1.0625,0 1.89063,0.39063 0.84375,0.39063 1.29687,1.09375 0.46876,0.70312 0.46876,1.59375 h -2.04688 q 0,-0.6875 -0.4375,-1.0625 -0.42188,-0.375 -1.20312,-0.375 -0.75,0 -1.17188,0.3125 -0.42188,0.3125 -0.42188,0.84375 0,0.48438 0.48438,0.8125 0.5,0.32812 1.45312,0.60938 1.75,0.53124 2.54688,1.3125 0.79688,0.78124 0.79688,1.9375 0,1.29687 -0.98438,2.03124 -0.96875,0.73438 -2.625,0.73438 -1.15625,0 -2.09375,-0.42188 -0.9375,-0.42187 -1.4375,-1.15624 -0.5,-0.73438 -0.5,-1.6875 h 2.0625 q 0,1.64062 1.96875,1.64062 0.73438,0 1.14062,-0.29688 0.40626,-0.29687 0.40626,-0.82812 z m 5.89062,-0.89062 v 3.5 h -2.04688 V 5.97512 h 3.875 q 1.125,0 1.96876,0.40625 0.85937,0.40625 1.3125,1.17188 0.46874,0.75 0.46874,1.71874 0,1.45313 -1,2.3125 -1,0.84376 -2.78124,0.84376 z m 0,-1.67188 h 1.82812 q 0.8125,0 1.23438,-0.375 0.4375,-0.39062 0.4375,-1.09375 0,-0.73437 -0.4375,-1.1875 -0.42188,-0.45313 -1.1875,-0.46875 h -1.875 z m 12.57812,3.125 h -3.60937 l -0.67187,2.04688 h -2.1875 l 3.70312,-9.95313 h 1.90625 l 3.71875,9.95313 h -2.17188 z m -3.04687,-1.67188 h 2.48437 l -1.25,-3.71874 z m 8.59375,3.71876 h -2.04688 V 5.97512 h 2.04688 z m 4.78125,-4.04688 q 0,-1.5625 0.42187,-2.96875 0.42188,-1.42187 1.23438,-2.51563 0.8125,-1.09374 1.76562,-1.51562 l 0.375,1.0625 q -1,0.73438 -1.5625,2.28125 -0.5625,1.54687 -0.5625,3.60937 v 0.21876 q 0,2.0625 0.54688,3.625 0.5625,1.54687 1.57812,2.3125 l -0.375,1.04687 q -0.9375,-0.42187 -1.75,-1.48437 -0.79687,-1.04688 -1.21874,-2.42188 -0.42188,-1.39062 -0.45313,-2.89062 z m 13.21875,-0.70312 q 0,1.46874 -0.51562,2.57812 -0.51563,1.10938 -1.48438,1.71875 -0.96875,0.59375 -2.21875,0.59375 -1.23437,0 -2.21875,-0.59375 -0.96875,-0.59375 -1.5,-1.70313 -0.53125,-1.10937 -0.53125,-2.54687 v -0.48437 q 0,-1.46876 0.51563,-2.57813 0.53124,-1.125 1.5,-1.71875 0.96874,-0.60938 2.21874,-0.60938 1.25,0 2.20313,0.60938 0.96875,0.59375 1.5,1.71875 0.53125,1.10937 0.53125,2.5625 z m -2.07812,-0.45313 q 0,-1.5625 -0.5625,-2.375 -0.5625,-0.8125 -1.59376,-0.8125 -1.03124,0 -1.59374,0.8125 -0.5625,0.79687 -0.5625,2.34375 v 0.48438 q 0,1.51562 0.54687,2.35937 0.5625,0.84375 1.625,0.84375 1.03125,0 1.57813,-0.8125 0.5625,-0.8125 0.5625,-2.35938 z m 8.20312,4.45313 q -0.73438,0.89062 -2.01562,0.89062 -1.20313,0 -1.82813,-0.6875 -0.625,-0.6875 -0.625,-2 V 8.53762 h 1.96875 v 4.76563 q 0,1.15624 1.04688,1.15624 1.01562,0 1.39062,-0.6875 V 8.53762 h 1.98438 v 7.39063 h -1.85938 z m 7.73438,-4.79688 q -0.40626,-0.0469 -0.71876,-0.0469 -1.125,0 -1.46874,0.75 v 4.84378 h -1.96876 V 8.53762 h 1.85938 l 0.0625,0.875 q 0.59375,-1.01563 1.64062,-1.01563 0.32813,0 0.60938,0.0938 z m 4.84374,3.5 q 0,-0.35938 -0.35937,-0.5625 -0.35937,-0.21875 -1.15625,-0.375 -2.64062,-0.5625 -2.64062,-2.25 0,-0.98438 0.8125,-1.64062 0.82812,-0.65626 2.14062,-0.65626 1.42188,0 2.26562,0.67188 0.84376,0.65625 0.84376,1.71875 h -1.98438 q 0,-0.4375 -0.28125,-0.70313 -0.26563,-0.28124 -0.84375,-0.28124 -0.5,0 -0.78125,0.23437 -0.26563,0.21875 -0.26563,0.5625 0,0.32813 0.3125,0.53125 0.3125,0.20312 1.04688,0.35938 0.73438,0.14062 1.25,0.32812 1.5625,0.5625 1.5625,1.98438 0,1.01562 -0.875,1.64062 -0.85938,0.625 -2.23438,0.625 -0.9375,0 -1.65624,-0.32812 -0.71876,-0.34376 -1.125,-0.92188 -0.40626,-0.57812 -0.40626,-1.25 h 1.85938 q 0.0312,0.53125 0.39062,0.8125 0.375,0.28125 0.96876,0.28125 0.57812,0 0.85937,-0.21875 0.29687,-0.21875 0.29687,-0.5625 z m 6.39063,-1.84375 q 0,1.54687 -0.4375,2.98437 -0.4375,1.42188 -1.28125,2.51563 -0.82812,1.09375 -1.78125,1.5 l -0.375,-1.04687 q 0.96875,-0.73438 1.51563,-2.25 0.5625,-1.53126 0.59374,-3.51563 v -0.35937 q 0,-2.04688 -0.5625,-3.59376 -0.5625,-1.5625 -1.54687,-2.34374 l 0.375,-1.04688 q 0.9375,0.40625 1.75,1.46875 0.82813,1.04687 1.28125,2.46875 0.45312,1.40625 0.46875,2.90625 z"
     fill-rule="nonzero"
     id="path40" />
</svg>
