<svg version="1.1" viewBox="0.0 0.0 190.0 225.0" fill="none" stroke="none" stroke-linecap="square" stroke-miterlimit="10" width="190" height="225" xmlns:xlink="http://www.w3.org/1999/xlink" xmlns="http://www.w3.org/2000/svg"><path fill="#ffffff" d="M0 0L190.0 0L190.0 225.0L0 225.0L0 0Z" fill-rule="nonzero"/><path stroke="#cccccc" stroke-width="1.0" stroke-linecap="butt" d="M180.5 18.5L180.5 153.5" fill-rule="nonzero"/><path stroke="#cccccc" stroke-width="1.0" stroke-linecap="butt" d="M152.5 18.5L152.5 153.5" fill-rule="nonzero"/><path stroke="#cccccc" stroke-width="1.0" stroke-linecap="butt" d="M124.5 18.5L124.5 153.5" fill-rule="nonzero"/><path stroke="#cccccc" stroke-width="1.0" stroke-linecap="butt" d="M96.5 18.5L96.5 153.5" fill-rule="nonzero"/><path stroke="#cccccc" stroke-width="1.0" stroke-linecap="butt" d="M68.5 18.5L68.5 153.5" fill-rule="nonzero"/><path stroke="#cccccc" stroke-width="1.0" stroke-linecap="butt" d="M40.5 18.5L40.5 153.5" fill-rule="nonzero"/><path stroke="#cccccc" stroke-width="1.0" stroke-linecap="butt" d="M40.5 153.5L180.5 153.5" fill-rule="nonzero"/><path stroke="#cccccc" stroke-width="1.0" stroke-linecap="butt" d="M40.5 126.5L180.5 126.5" fill-rule="nonzero"/><path stroke="#cccccc" stroke-width="1.0" stroke-linecap="butt" d="M40.5 99.5L180.5 99.5" fill-rule="nonzero"/><path stroke="#cccccc" stroke-width="1.0" stroke-linecap="butt" d="M40.5 72.5L180.5 72.5" fill-rule="nonzero"/><path stroke="#cccccc" stroke-width="1.0" stroke-linecap="butt" d="M40.5 45.5L180.5 45.5" fill-rule="nonzero"/><path stroke="#cccccc" stroke-width="1.0" stroke-linecap="butt" d="M40.5 18.5L180.5 18.5" fill-rule="nonzero"/><clipPath id="id_0"><path d="M40.5 18.0L180.5 18.0L180.5 153.5L40.5 153.5L40.5 18.0Z" clip-rule="nonzero"/></clipPath><path stroke="#4285f4" stroke-width="4.0" stroke-linecap="butt" clip-path="url(#id_0)" d="M40.5 81.3571L82.5 78.90431L124.5 85.27214L180.5 103.09387" fill-rule="nonzero"/><path stroke="#ea4335" stroke-width="4.0" stroke-linecap="butt" clip-path="url(#id_0)" d="M40.5 79.52721L82.5 69.62594L124.5 66.54093L180.5 98.06807" fill-rule="nonzero"/><path stroke="#fbbc04" stroke-width="4.0" stroke-linecap="butt" clip-path="url(#id_0)" d="M40.5 45.97097L82.5 50.29072L124.5 67.0637L180.5 94.63673" fill-rule="nonzero"/><path fill="#000000" fill-opacity="0.0" clip-path="url(#id_0)" d="M43.5 81.3571C43.5 83.013954 42.156853 84.3571 40.5 84.3571C38.843147 84.3571 37.5 83.013954 37.5 81.3571C37.5 79.70025 38.843147 78.3571 40.5 78.3571C42.156853 78.3571 43.5 79.70025 43.5 81.3571Z" fill-rule="nonzero"/><path fill="#000000" fill-opacity="0.0" clip-path="url(#id_0)" d="M85.5 78.90431C85.5 80.561165 84.15685 81.90431 82.5 81.90431C80.84315 81.90431 79.5 80.561165 79.5 78.90431C79.5 77.24746 80.84315 75.90431 82.5 75.90431C84.15685 75.90431 85.5 77.24746 85.5 78.90431Z" fill-rule="nonzero"/><path fill="#000000" fill-opacity="0.0" clip-path="url(#id_0)" d="M127.5 85.27214C127.5 86.92899 126.15685 88.27214 124.5 88.27214C122.84315 88.27214 121.5 86.92899 121.5 85.27214C121.5 83.61529 122.84315 82.27214 124.5 82.27214C126.15685 82.27214 127.5 83.61529 127.5 85.27214Z" fill-rule="nonzero"/><path fill="#000000" fill-opacity="0.0" clip-path="url(#id_0)" d="M183.5 103.09387C183.5 104.750725 182.15686 106.09387 180.5 106.09387C178.84314 106.09387 177.5 104.750725 177.5 103.09387C177.5 101.43701 178.84314 100.09387 180.5 100.09387C182.15686 100.09387 183.5 101.43701 183.5 103.09387Z" fill-rule="nonzero"/><path fill="#000000" fill-opacity="0.0" clip-path="url(#id_0)" d="M43.5 79.52721C43.5 81.18406 42.156853 82.52721 40.5 82.52721C38.843147 82.52721 37.5 81.18406 37.5 79.52721C37.5 77.87035 38.843147 76.52721 40.5 76.52721C42.156853 76.52721 43.5 77.87035 43.5 79.52721Z" fill-rule="nonzero"/><path fill="#000000" fill-opacity="0.0" clip-path="url(#id_0)" d="M85.5 69.62594C85.5 71.28279 84.15685 72.62594 82.5 72.62594C80.84315 72.62594 79.5 71.28279 79.5 69.62594C79.5 67.96908 80.84315 66.62594 82.5 66.62594C84.15685 66.62594 85.5 67.96908 85.5 69.62594Z" fill-rule="nonzero"/><path fill="#000000" fill-opacity="0.0" clip-path="url(#id_0)" d="M127.5 66.54093C127.5 68.19779 126.15685 69.54093 124.5 69.54093C122.84315 69.54093 121.5 68.19779 121.5 66.54093C121.5 64.88408 122.84315 63.540936 124.5 63.540936C126.15685 63.540936 127.5 64.88408 127.5 66.54093Z" fill-rule="nonzero"/><path fill="#000000" fill-opacity="0.0" clip-path="url(#id_0)" d="M183.5 98.06807C183.5 99.72492 182.15686 101.06807 180.5 101.06807C178.84314 101.06807 177.5 99.72492 177.5 98.06807C177.5 96.41121 178.84314 95.06807 180.5 95.06807C182.15686 95.06807 183.5 96.41121 183.5 98.06807Z" fill-rule="nonzero"/><path fill="#000000" fill-opacity="0.0" clip-path="url(#id_0)" d="M43.5 45.97097C43.5 47.627823 42.156853 48.97097 40.5 48.97097C38.843147 48.97097 37.5 47.627823 37.5 45.97097C37.5 44.314114 38.843147 42.97097 40.5 42.97097C42.156853 42.97097 43.5 44.314114 43.5 45.97097Z" fill-rule="nonzero"/><path fill="#000000" fill-opacity="0.0" clip-path="url(#id_0)" d="M85.5 50.29072C85.5 51.947575 84.15685 53.29072 82.5 53.29072C80.84315 53.29072 79.5 51.947575 79.5 50.29072C79.5 48.63387 80.84315 47.29072 82.5 47.29072C84.15685 47.29072 85.5 48.63387 85.5 50.29072Z" fill-rule="nonzero"/><path fill="#000000" fill-opacity="0.0" clip-path="url(#id_0)" d="M127.5 67.0637C127.5 68.72055 126.15685 70.0637 124.5 70.0637C122.84315 70.0637 121.5 68.72055 121.5 67.0637C121.5 65.406845 122.84315 64.0637 124.5 64.0637C126.15685 64.0637 127.5 65.406845 127.5 67.0637Z" fill-rule="nonzero"/><path fill="#000000" fill-opacity="0.0" clip-path="url(#id_0)" d="M183.5 94.63673C183.5 96.29358 182.15686 97.63673 180.5 97.63673C178.84314 97.63673 177.5 96.29358 177.5 94.63673C177.5 92.979866 178.84314 91.63673 180.5 91.63673C182.15686 91.63673 183.5 92.979866 183.5 94.63673Z" fill-rule="nonzero"/><path fill="#000000" d="M65.046875 208.89062Q65.046875 208.3125 64.640625 208.0Q64.234375 207.6875 63.15625 207.34375Q62.09375 207.0 61.46875 206.65625Q59.78125 205.75 59.78125 204.1875Q59.78125 203.39062 60.234375 202.76562Q60.6875 202.125 61.53125 201.76562Q62.390625 201.40625 63.453125 201.40625Q64.515625 201.40625 65.34375 201.79688Q66.1875 202.1875 66.640625 202.89062Q67.109375 203.59375 67.109375 204.48438L65.0625 204.48438Q65.0625 203.79688 64.625 203.42188Q64.203125 203.04688 63.421875 203.04688Q62.671875 203.04688 62.25 203.35938Q61.828125 203.67188 61.828125 204.20312Q61.828125 204.6875 62.3125 205.01562Q62.8125 205.34375 63.765625 205.625Q65.515625 206.15625 66.3125 206.9375Q67.109375 207.71875 67.109375 208.875Q67.109375 210.17188 66.125 210.90625Q65.15625 211.64062 63.5 211.64062Q62.34375 211.64062 61.40625 211.21875Q60.46875 210.79688 59.96875 210.0625Q59.46875 209.32812 59.46875 208.375L61.53125 208.375Q61.53125 210.01562 63.5 210.01562Q64.234375 210.01562 64.640625 209.71875Q65.046875 209.42188 65.046875 208.89062ZM71.828125 210.04688Q72.375 210.04688 72.71875 209.75Q73.0625 209.4375 73.078125 208.9375L74.9375 208.9375Q74.921875 209.6875 74.515625 210.32812Q74.125 210.95312 73.421875 211.29688Q72.71875 211.64062 71.875 211.64062Q70.28125 211.64062 69.359375 210.64062Q68.453125 209.625 68.453125 207.84375L68.453125 207.71875Q68.453125 206.0 69.359375 204.98438Q70.265625 203.96875 71.859375 203.96875Q73.25 203.96875 74.078125 204.76562Q74.921875 205.54688 74.9375 206.85938L73.078125 206.85938Q73.0625 206.28125 72.71875 205.92188Q72.375 205.5625 71.828125 205.5625Q71.125 205.5625 70.765625 206.07812Q70.421875 206.57812 70.421875 207.70312L70.421875 207.90625Q70.421875 209.04688 70.765625 209.54688Q71.125 210.04688 71.828125 210.04688ZM80.046875 211.5Q79.90625 211.23438 79.84375 210.84375Q79.125 211.64062 77.984375 211.64062Q76.890625 211.64062 76.171875 211.01562Q75.46875 210.375 75.46875 209.42188Q75.46875 208.25 76.328125 207.625Q77.203125 206.98438 78.859375 206.98438L79.765625 206.98438L79.765625 206.5625Q79.765625 206.04688 79.5 205.73438Q79.234375 205.42188 78.671875 205.42188Q78.171875 205.42188 77.890625 205.67188Q77.609375 205.90625 77.609375 206.32812L75.625 206.32812Q75.625 205.6875 76.015625 205.14062Q76.421875 204.59375 77.140625 204.28125Q77.875 203.96875 78.78125 203.96875Q80.140625 203.96875 80.9375 204.65625Q81.75 205.34375 81.75 206.57812L81.75 209.79688Q81.75 210.84375 82.046875 211.39062L82.046875 211.5L80.046875 211.5ZM78.40625 210.125Q78.84375 210.125 79.21875 209.9375Q79.59375 209.73438 79.765625 209.40625L79.765625 208.14062L79.03125 208.14062Q77.546875 208.14062 77.453125 209.15625L77.4375 209.28125Q77.4375 209.64062 77.6875 209.89062Q77.953125 210.125 78.40625 210.125ZM85.84375 211.5L83.859375 211.5L83.859375 201.0L85.84375 201.0L85.84375 211.5ZM91.15625 211.64062Q89.53125 211.64062 88.515625 210.64062Q87.5 209.64062 87.5 207.98438L87.5 207.78125Q87.5 206.67188 87.921875 205.79688Q88.359375 204.92188 89.140625 204.45312Q89.9375 203.96875 90.9375 203.96875Q92.46875 203.96875 93.328125 204.92188Q94.203125 205.875 94.203125 207.64062L94.203125 208.4375L89.5 208.4375Q89.59375 209.17188 90.078125 209.60938Q90.5625 210.04688 91.296875 210.04688Q92.4375 210.04688 93.078125 209.21875L94.046875 210.29688Q93.609375 210.9375 92.84375 211.29688Q92.09375 211.64062 91.15625 211.64062ZM90.9375 205.5625Q90.34375 205.5625 89.984375 205.96875Q89.625 206.35938 89.515625 207.09375L92.265625 207.09375L92.265625 206.9375Q92.25 206.28125 91.90625 205.92188Q91.5625 205.5625 90.9375 205.5625ZM104.875 207.4375L100.9375 207.4375L100.9375 211.5L98.890625 211.5L98.890625 201.54688L105.375 201.54688L105.375 203.20312L100.9375 203.20312L100.9375 205.78125L104.875 205.78125L104.875 207.4375ZM111.046875 211.5Q110.90625 211.23438 110.84375 210.84375Q110.125 211.64062 108.984375 211.64062Q107.890625 211.64062 107.171875 211.01562Q106.46875 210.375 106.46875 209.42188Q106.46875 208.25 107.328125 207.625Q108.203125 206.98438 109.859375 206.98438L110.765625 206.98438L110.765625 206.5625Q110.765625 206.04688 110.5 205.73438Q110.234375 205.42188 109.671875 205.42188Q109.171875 205.42188 108.890625 205.67188Q108.609375 205.90625 108.609375 206.32812L106.625 206.32812Q106.625 205.6875 107.015625 205.14062Q107.421875 204.59375 108.140625 204.28125Q108.875 203.96875 109.78125 203.96875Q111.140625 203.96875 111.9375 204.65625Q112.75 205.34375 112.75 206.57812L112.75 209.79688Q112.75 210.84375 113.046875 211.39062L113.046875 211.5L111.046875 211.5ZM109.40625 210.125Q109.84375 210.125 110.21875 209.9375Q110.59375 209.73438 110.765625 209.40625L110.765625 208.14062L110.03125 208.14062Q108.546875 208.14062 108.453125 209.15625L108.4375 209.28125Q108.4375 209.64062 108.6875 209.89062Q108.953125 210.125 109.40625 210.125ZM117.828125 210.04688Q118.375 210.04688 118.71875 209.75Q119.0625 209.4375 119.078125 208.9375L120.9375 208.9375Q120.921875 209.6875 120.515625 210.32812Q120.125 210.95312 119.421875 211.29688Q118.71875 211.64062 117.875 211.64062Q116.28125 211.64062 115.359375 210.64062Q114.453125 209.625 114.453125 207.84375L114.453125 207.71875Q114.453125 206.0 115.359375 204.98438Q116.265625 203.96875 117.859375 203.96875Q119.25 203.96875 120.078125 204.76562Q120.921875 205.54688 120.9375 206.85938L119.078125 206.85938Q119.0625 206.28125 118.71875 205.92188Q118.375 205.5625 117.828125 205.5625Q117.125 205.5625 116.765625 206.07812Q116.421875 206.57812 116.421875 207.70312L116.421875 207.90625Q116.421875 209.04688 116.765625 209.54688Q117.125 210.04688 117.828125 210.04688ZM124.125 202.28125L124.125 204.10938L125.390625 204.10938L125.390625 205.54688L124.125 205.54688L124.125 209.25Q124.125 209.65625 124.28125 209.84375Q124.4375 210.01562 124.890625 210.01562Q125.21875 210.01562 125.46875 209.96875L125.46875 211.45312Q124.890625 211.64062 124.265625 211.64062Q122.1875 211.64062 122.15625 209.53125L122.15625 205.54688L121.0625 205.54688L121.0625 204.10938L122.15625 204.10938L122.15625 202.28125L124.125 202.28125ZM126.453125 207.73438Q126.453125 206.625 126.875 205.76562Q127.296875 204.90625 128.09375 204.4375Q128.89062 203.96875 129.9375 203.96875Q131.4375 203.96875 132.375 204.89062Q133.32812 205.79688 133.4375 207.375L133.45312 207.875Q133.45312 209.57812 132.5 210.60938Q131.5625 211.64062 129.95312 211.64062Q128.35938 211.64062 127.40625 210.60938Q126.453125 209.57812 126.453125 207.82812L126.453125 207.73438ZM128.42188 207.875Q128.42188 208.92188 128.8125 209.48438Q129.21875 210.04688 129.95312 210.04688Q130.67188 210.04688 131.07812 209.5Q131.48438 208.9375 131.48438 207.73438Q131.48438 206.70312 131.07812 206.14062Q130.67188 205.5625 129.9375 205.5625Q129.21875 205.5625 128.8125 206.125Q128.42188 206.6875 128.42188 207.875ZM138.92188 205.95312Q138.51562 205.90625 138.20312 205.90625Q137.07812 205.90625 136.73438 206.65625L136.73438 211.5L134.76562 211.5L134.76562 204.10938L136.625 204.10938L136.6875 204.98438Q137.28125 203.96875 138.32812 203.96875Q138.65625 203.96875 138.9375 204.0625L138.92188 205.95312ZM142.84375 207.45312Q142.84375 205.89062 143.26562 204.48438Q143.6875 203.0625 144.5 201.96875Q145.3125 200.875 146.26562 200.45312L146.64062 201.51562Q145.64062 202.25 145.07812 203.79688Q144.51562 205.34375 144.51562 207.40625L144.51562 207.625Q144.51562 209.6875 145.0625 211.25Q145.625 212.79688 146.64062 213.5625L146.26562 214.60938Q145.32812 214.1875 144.51562 213.125Q143.71875 212.07812 143.29688 210.70312Q142.875 209.3125 142.84375 207.8125L142.84375 207.45312ZM147.65625 203.45312Q147.65625 202.54688 148.25 201.98438Q148.84375 201.40625 149.79688 201.40625Q150.78125 201.40625 151.375 201.96875Q151.96875 202.53125 151.96875 203.5L151.96875 203.98438Q151.96875 204.90625 151.375 205.46875Q150.78125 206.03125 149.8125 206.03125Q148.84375 206.03125 148.25 205.46875Q147.65625 204.90625 147.65625 203.95312L147.65625 203.45312ZM148.96875 203.98438Q148.96875 204.39062 149.20312 204.64062Q149.4375 204.89062 149.8125 204.89062Q150.20312 204.89062 150.42188 204.64062Q150.65625 204.39062 150.65625 203.96875L150.65625 203.45312Q150.65625 203.04688 150.42188 202.79688Q150.20312 202.54688 149.79688 202.54688Q149.42188 202.54688 149.1875 202.79688Q148.96875 203.04688 148.96875 203.48438L148.96875 203.98438ZM152.40625 209.0625Q152.40625 208.14062 153.0 207.57812Q153.60938 207.01562 154.5625 207.01562Q155.53125 207.01562 156.125 207.57812Q156.73438 208.125 156.73438 209.09375L156.73438 209.59375Q156.73438 210.51562 156.14062 211.07812Q155.5625 211.64062 154.57812 211.64062Q153.59375 211.64062 153.0 211.07812Q152.40625 210.5 152.40625 209.5625L152.40625 209.0625ZM153.71875 209.59375Q153.71875 209.96875 153.96875 210.23438Q154.21875 210.5 154.57812 210.5Q155.42188 210.5 155.42188 209.57812L155.42188 209.0625Q155.42188 208.65625 155.1875 208.40625Q154.95312 208.15625 154.5625 208.15625Q154.1875 208.15625 153.95312 208.40625Q153.71875 208.65625 153.71875 209.07812L153.71875 209.59375ZM150.20312 210.75L149.25 210.23438L154.10938 202.45312L155.0625 202.96875L150.20312 210.75ZM161.15625 207.60938Q161.15625 209.15625 160.71875 210.59375Q160.28125 212.01562 159.4375 213.10938Q158.60938 214.20312 157.65625 214.60938L157.28125 213.5625Q158.25 212.82812 158.79688 211.3125Q159.35938 209.78125 159.39062 207.79688L159.39062 207.4375Q159.39062 205.39062 158.82812 203.84375Q158.26562 202.28125 157.28125 201.5L157.65625 200.45312Q158.59375 200.85938 159.40625 201.92188Q160.23438 202.96875 160.6875 204.39062Q161.14062 205.79688 161.15625 207.29688L161.15625 207.60938Z" fill-rule="nonzero"/><path fill="#000000" d="M18.46875 153.10938L19.046875 148.04688L24.625 148.04688L24.625 149.6875L20.671875 149.6875L20.421875 151.82812Q21.125 151.45312 21.921875 151.45312Q23.34375 151.45312 24.140625 152.34375Q24.953125 153.21875 24.953125 154.8125Q24.953125 155.76562 24.546875 156.53125Q24.140625 157.29688 23.375 157.71875Q22.625 158.14062 21.59375 158.14062Q20.6875 158.14062 19.90625 157.78125Q19.140625 157.40625 18.6875 156.75Q18.25 156.07812 18.21875 155.23438L20.171875 155.23438Q20.234375 155.85938 20.609375 156.20312Q20.984375 156.54688 21.578125 156.54688Q22.25 156.54688 22.609375 156.0625Q22.96875 155.57812 22.96875 154.70312Q22.96875 153.84375 22.546875 153.40625Q22.140625 152.95312 21.375 152.95312Q20.671875 152.95312 20.234375 153.3125L20.046875 153.5L18.46875 153.10938ZM32.875 153.89062Q32.875 155.95312 32.015625 157.04688Q31.171875 158.14062 29.515625 158.14062Q27.890625 158.14062 27.03125 157.0625Q26.171875 155.98438 26.15625 153.98438L26.15625 152.15625Q26.15625 150.0625 27.015625 148.98438Q27.875 147.90625 29.5 147.90625Q31.140625 147.90625 32.0 148.98438Q32.859375 150.04688 32.875 152.04688L32.875 153.89062ZM30.90625 151.875Q30.90625 150.64062 30.5625 150.07812Q30.21875 149.51562 29.5 149.51562Q28.8125 149.51562 28.46875 150.04688Q28.140625 150.57812 28.125 151.71875L28.125 154.14062Q28.125 155.35938 28.453125 155.95312Q28.78125 156.54688 29.515625 156.54688Q30.25 156.54688 30.5625 155.98438Q30.890625 155.40625 30.90625 154.23438L30.90625 151.875Z" fill-rule="nonzero"/><path fill="#000000" d="M23.53125 120.837494L23.53125 122.47812L23.34375 122.47812Q22.0 122.493744 21.1875 123.16562Q20.375 123.837494 20.203125 125.04062Q21.0 124.243744 22.203125 124.243744Q23.515625 124.243744 24.28125 125.181244Q25.046875 126.10312 25.046875 127.618744Q25.046875 128.5875 24.625 129.38437Q24.203125 130.16562 23.421875 130.60312Q22.65625 131.04062 21.6875 131.04062Q20.125 131.04062 19.15625 129.94687Q18.1875 128.85312 18.1875 127.024994L18.1875 126.306244Q18.1875 124.69687 18.796875 123.462494Q19.40625 122.212494 20.546875 121.54062Q21.703125 120.85312 23.203125 120.837494L23.53125 120.837494ZM21.609375 125.82187Q21.125 125.82187 20.734375 126.07187Q20.34375 126.32187 20.171875 126.743744L20.171875 127.337494Q20.171875 128.32187 20.5625 128.88437Q20.953125 129.44687 21.65625 129.44687Q22.28125 129.44687 22.671875 128.94687Q23.078125 128.43124 23.078125 127.63437Q23.078125 126.82187 22.671875 126.32187Q22.28125 125.82187 21.609375 125.82187ZM32.875 126.79062Q32.875 128.85312 32.015625 129.94687Q31.171875 131.04062 29.515625 131.04062Q27.890625 131.04062 27.03125 129.9625Q26.171875 128.88437 26.15625 126.88437L26.15625 125.056244Q26.15625 122.962494 27.015625 121.88437Q27.875 120.806244 29.5 120.806244Q31.140625 120.806244 32.0 121.88437Q32.859375 122.94687 32.875 124.94687L32.875 126.79062ZM30.90625 124.774994Q30.90625 123.54062 30.5625 122.97812Q30.21875 122.41562 29.5 122.41562Q28.8125 122.41562 28.46875 122.94687Q28.140625 123.47812 28.125 124.618744L28.125 127.04062Q28.125 128.25937 28.453125 128.85312Q28.78125 129.44687 29.515625 129.44687Q30.25 129.44687 30.5625 128.88437Q30.890625 128.30624 30.90625 127.13437L30.90625 124.774994Z" fill-rule="nonzero"/><path fill="#000000" d="M24.9375 94.95625L21.09375 103.8L19.015625 103.8L22.859375 95.44063L17.921875 95.44063L17.921875 93.84688L24.9375 93.84688L24.9375 94.95625ZM32.875 99.69063Q32.875 101.75313 32.015625 102.84688Q31.171875 103.94063 29.515625 103.94063Q27.890625 103.94063 27.03125 102.8625Q26.171875 101.78438 26.15625 99.78438L26.15625 97.95625Q26.15625 95.8625 27.015625 94.78438Q27.875 93.70625 29.5 93.70625Q31.140625 93.70625 32.0 94.78438Q32.859375 95.84688 32.875 97.84688L32.875 99.69063ZM30.90625 97.675Q30.90625 96.44063 30.5625 95.87813Q30.21875 95.31563 29.5 95.31563Q28.8125 95.31563 28.46875 95.84688Q28.140625 96.37813 28.125 97.51875L28.125 99.94063Q28.125 101.15938 28.453125 101.75313Q28.78125 102.34688 29.515625 102.34688Q30.25 102.34688 30.5625 101.78438Q30.890625 101.20625 30.90625 100.03438L30.90625 97.675Z" fill-rule="nonzero"/><path fill="#000000" d="M24.671875 69.3875Q24.671875 70.12187 24.296875 70.68437Q23.9375 71.23125 23.296875 71.575Q24.03125 71.91875 24.453125 72.52812Q24.875 73.1375 24.875 73.96562Q24.875 75.29375 23.96875 76.075Q23.078125 76.84062 21.515625 76.84062Q19.96875 76.84062 19.0625 76.075Q18.15625 75.29375 18.15625 73.96562Q18.15625 73.1375 18.578125 72.52812Q19.0 71.91875 19.71875 71.575Q19.078125 71.23125 18.71875 70.68437Q18.359375 70.12187 18.359375 69.3875Q18.359375 68.12187 19.203125 67.37187Q20.0625 66.60625 21.515625 66.60625Q22.96875 66.60625 23.8125 67.35625Q24.671875 68.10625 24.671875 69.3875ZM22.890625 73.825Q22.890625 73.18437 22.515625 72.79375Q22.140625 72.40312 21.5 72.40312Q20.875 72.40312 20.5 72.79375Q20.125 73.16875 20.125 73.825Q20.125 74.46562 20.484375 74.85625Q20.859375 75.24687 21.515625 75.24687Q22.15625 75.24687 22.515625 74.87187Q22.890625 74.49687 22.890625 73.825ZM22.6875 69.48125Q22.6875 68.90312 22.375 68.55937Q22.078125 68.2 21.515625 68.2Q20.953125 68.2 20.640625 68.54375Q20.34375 68.8875 20.34375 69.48125Q20.34375 70.075 20.640625 70.45Q20.953125 70.80937 21.515625 70.80937Q22.078125 70.80937 22.375 70.45Q22.6875 70.075 22.6875 69.48125ZM32.875 72.59062Q32.875 74.65312 32.015625 75.74687Q31.171875 76.84062 29.515625 76.84062Q27.890625 76.84062 27.03125 75.7625Q26.171875 74.68437 26.15625 72.68437L26.15625 70.85625Q26.15625 68.7625 27.015625 67.68437Q27.875 66.60625 29.5 66.60625Q31.140625 66.60625 32.0 67.68437Q32.859375 68.74687 32.875 70.74687L32.875 72.59062ZM30.90625 70.575Q30.90625 69.34062 30.5625 68.77812Q30.21875 68.21562 29.5 68.21562Q28.8125 68.21562 28.46875 68.74687Q28.140625 69.27812 28.125 70.41875L28.125 72.84062Q28.125 74.05937 28.453125 74.65312Q28.78125 75.24687 29.515625 75.24687Q30.25 75.24687 30.5625 74.68437Q30.890625 74.10625 30.90625 72.93437L30.90625 70.575Z" fill-rule="nonzero"/><path fill="#000000" d="M22.796875 45.615623Q22.03125 46.38125 21.0 46.38125Q19.671875 46.38125 18.875 45.475Q18.09375 44.56875 18.09375 43.0375Q18.09375 42.053123 18.515625 41.240623Q18.9375 40.4125 19.703125 39.959373Q20.46875 39.50625 21.4375 39.50625Q22.421875 39.50625 23.1875 40.00625Q23.953125 40.490623 24.375 41.4125Q24.796875 42.334373 24.796875 43.521873L24.796875 44.25625Q24.796875 46.75625 23.5625 48.178123Q22.328125 49.6 20.0625 49.69375L19.578125 49.69375L19.578125 48.053123L20.015625 48.0375Q22.59375 47.928123 22.796875 45.615623ZM21.484375 44.865623Q21.953125 44.865623 22.296875 44.63125Q22.640625 44.38125 22.828125 44.021873L22.828125 43.209373Q22.828125 42.209373 22.4375 41.6625Q22.0625 41.1 21.421875 41.1Q20.828125 41.1 20.4375 41.646873Q20.0625 42.19375 20.0625 43.00625Q20.0625 43.81875 20.421875 44.35Q20.796875 44.865623 21.484375 44.865623ZM32.875 45.490623Q32.875 47.553123 32.015625 48.646873Q31.171875 49.740623 29.515625 49.740623Q27.890625 49.740623 27.03125 48.6625Q26.171875 47.584373 26.15625 45.584373L26.15625 43.75625Q26.15625 41.6625 27.015625 40.584373Q27.875 39.50625 29.5 39.50625Q31.140625 39.50625 32.0 40.584373Q32.859375 41.646873 32.875 43.646873L32.875 45.490623ZM30.90625 43.475Q30.90625 42.240623 30.5625 41.678123Q30.21875 41.115623 29.5 41.115623Q28.8125 41.115623 28.46875 41.646873Q28.140625 42.178123 28.125 43.31875L28.125 45.740623Q28.125 46.959373 28.453125 47.553123Q28.78125 48.146873 29.515625 48.146873Q30.25 48.146873 30.5625 47.584373Q30.890625 47.00625 30.90625 45.834373L30.90625 43.475Z" fill-rule="nonzero"/><path fill="#000000" d="M14.96875 22.5L13.0 22.5L13.0 14.890625L10.640625 15.609375L10.640625 14.015625L14.765625 12.53125L14.96875 12.53125L14.96875 22.5ZM24.875 18.390625Q24.875 20.453125 24.015625 21.546875Q23.171875 22.640625 21.515625 22.640625Q19.890625 22.640625 19.03125 21.5625Q18.171875 20.484375 18.15625 18.484375L18.15625 16.65625Q18.15625 14.5625 19.015625 13.484375Q19.875 12.40625 21.5 12.40625Q23.140625 12.40625 24.0 13.484375Q24.859375 14.546875 24.875 16.546875L24.875 18.390625ZM22.90625 16.375Q22.90625 15.140625 22.5625 14.578125Q22.21875 14.015625 21.5 14.015625Q20.8125 14.015625 20.46875 14.546875Q20.140625 15.078125 20.125 16.21875L20.125 18.640625Q20.125 19.859375 20.453125 20.453125Q20.78125 21.046875 21.515625 21.046875Q22.25 21.046875 22.5625 20.484375Q22.890625 19.90625 22.90625 18.734375L22.90625 16.375ZM32.875 18.390625Q32.875 20.453125 32.015625 21.546875Q31.171875 22.640625 29.515625 22.640625Q27.890625 22.640625 27.03125 21.5625Q26.171875 20.484375 26.15625 18.484375L26.15625 16.65625Q26.15625 14.5625 27.015625 13.484375Q27.875 12.40625 29.5 12.40625Q31.140625 12.40625 32.0 13.484375Q32.859375 14.546875 32.875 16.546875L32.875 18.390625ZM30.90625 16.375Q30.90625 15.140625 30.5625 14.578125Q30.21875 14.015625 29.5 14.015625Q28.8125 14.015625 28.46875 14.546875Q28.140625 15.078125 28.125 16.21875L28.125 18.640625Q28.125 19.859375 28.453125 20.453125Q28.78125 21.046875 29.515625 21.046875Q30.25 21.046875 30.5625 20.484375Q30.890625 19.90625 30.90625 18.734375L30.90625 16.375Z" fill-rule="nonzero"/><path fill="#000000" d="M173.46875 168.60938L174.04688 163.54688L179.625 163.54688L179.625 165.1875L175.67188 165.1875L175.42188 167.32812Q176.125 166.95312 176.92188 166.95312Q178.34375 166.95312 179.14062 167.84375Q179.95312 168.71875 179.95312 170.3125Q179.95312 171.26562 179.54688 172.03125Q179.14062 172.79688 178.375 173.21875Q177.625 173.64062 176.59375 173.64062Q175.6875 173.64062 174.90625 173.28125Q174.14062 172.90625 173.6875 172.25Q173.25 171.57812 173.21875 170.73438L175.17188 170.73438Q175.23438 171.35938 175.60938 171.70312Q175.98438 172.04688 176.57812 172.04688Q177.25 172.04688 177.60938 171.5625Q177.96875 171.07812 177.96875 170.20312Q177.96875 169.34375 177.54688 168.90625Q177.14062 168.45312 176.375 168.45312Q175.67188 168.45312 175.23438 168.8125L175.04688 169.0L173.46875 168.60938ZM187.875 169.39062Q187.875 171.45312 187.01562 172.54688Q186.17188 173.64062 184.51562 173.64062Q182.89062 173.64062 182.03125 172.5625Q181.17188 171.48438 181.15625 169.48438L181.15625 167.65625Q181.15625 165.5625 182.01562 164.48438Q182.875 163.40625 184.5 163.40625Q186.14062 163.40625 187.0 164.48438Q187.85938 165.54688 187.875 167.54688L187.875 169.39062ZM185.90625 167.375Q185.90625 166.14062 185.5625 165.57812Q185.21875 165.01562 184.5 165.01562Q183.8125 165.01562 183.46875 165.54688Q183.14062 166.07812 183.125 167.21875L183.125 169.64062Q183.125 170.85938 183.45312 171.45312Q183.78125 172.04688 184.51562 172.04688Q185.25 172.04688 185.5625 171.48438Q185.89062 170.90625 185.90625 169.73438L185.90625 167.375Z" fill-rule="nonzero"/><path fill="#000000" d="M150.53125 163.4375L150.53125 165.07812L150.34375 165.07812Q149.0 165.09375 148.1875 165.76562Q147.375 166.4375 147.20312 167.64062Q148.0 166.84375 149.20312 166.84375Q150.51562 166.84375 151.28125 167.78125Q152.04688 168.70312 152.04688 170.21875Q152.04688 171.1875 151.625 171.98438Q151.20312 172.76562 150.42188 173.20312Q149.65625 173.64062 148.6875 173.64062Q147.125 173.64062 146.15625 172.54688Q145.1875 171.45312 145.1875 169.625L145.1875 168.90625Q145.1875 167.29688 145.79688 166.0625Q146.40625 164.8125 147.54688 164.14062Q148.70312 163.45312 150.20312 163.4375L150.53125 163.4375ZM148.60938 168.42188Q148.125 168.42188 147.73438 168.67188Q147.34375 168.92188 147.17188 169.34375L147.17188 169.9375Q147.17188 170.92188 147.5625 171.48438Q147.95312 172.04688 148.65625 172.04688Q149.28125 172.04688 149.67188 171.54688Q150.07812 171.03125 150.07812 170.23438Q150.07812 169.42188 149.67188 168.92188Q149.28125 168.42188 148.60938 168.42188ZM159.875 169.39062Q159.875 171.45312 159.01562 172.54688Q158.17188 173.64062 156.51562 173.64062Q154.89062 173.64062 154.03125 172.5625Q153.17188 171.48438 153.15625 169.48438L153.15625 167.65625Q153.15625 165.5625 154.01562 164.48438Q154.875 163.40625 156.5 163.40625Q158.14062 163.40625 159.0 164.48438Q159.85938 165.54688 159.875 167.54688L159.875 169.39062ZM157.90625 167.375Q157.90625 166.14062 157.5625 165.57812Q157.21875 165.01562 156.5 165.01562Q155.8125 165.01562 155.46875 165.54688Q155.14062 166.07812 155.125 167.21875L155.125 169.64062Q155.125 170.85938 155.45312 171.45312Q155.78125 172.04688 156.51562 172.04688Q157.25 172.04688 157.5625 171.48438Q157.89062 170.90625 157.90625 169.73438L157.90625 167.375Z" fill-rule="nonzero"/><path fill="#000000" d="M123.9375 164.65625L120.09375 173.5L118.015625 173.5L121.859375 165.14062L116.921875 165.14062L116.921875 163.54688L123.9375 163.54688L123.9375 164.65625ZM131.875 169.39062Q131.875 171.45312 131.01562 172.54688Q130.17188 173.64062 128.51562 173.64062Q126.890625 173.64062 126.03125 172.5625Q125.171875 171.48438 125.15625 169.48438L125.15625 167.65625Q125.15625 165.5625 126.015625 164.48438Q126.875 163.40625 128.5 163.40625Q130.14062 163.40625 131.0 164.48438Q131.85938 165.54688 131.875 167.54688L131.875 169.39062ZM129.90625 167.375Q129.90625 166.14062 129.5625 165.57812Q129.21875 165.01562 128.5 165.01562Q127.8125 165.01562 127.46875 165.54688Q127.140625 166.07812 127.125 167.21875L127.125 169.64062Q127.125 170.85938 127.453125 171.45312Q127.78125 172.04688 128.51562 172.04688Q129.25 172.04688 129.5625 171.48438Q129.89062 170.90625 129.90625 169.73438L129.90625 167.375Z" fill-rule="nonzero"/><path fill="#000000" d="M95.671875 166.1875Q95.671875 166.92188 95.296875 167.48438Q94.9375 168.03125 94.296875 168.375Q95.03125 168.71875 95.453125 169.32812Q95.875 169.9375 95.875 170.76562Q95.875 172.09375 94.96875 172.875Q94.078125 173.64062 92.515625 173.64062Q90.96875 173.64062 90.0625 172.875Q89.15625 172.09375 89.15625 170.76562Q89.15625 169.9375 89.578125 169.32812Q90.0 168.71875 90.71875 168.375Q90.078125 168.03125 89.71875 167.48438Q89.359375 166.92188 89.359375 166.1875Q89.359375 164.92188 90.203125 164.17188Q91.0625 163.40625 92.515625 163.40625Q93.96875 163.40625 94.8125 164.15625Q95.671875 164.90625 95.671875 166.1875ZM93.890625 170.625Q93.890625 169.98438 93.515625 169.59375Q93.140625 169.20312 92.5 169.20312Q91.875 169.20312 91.5 169.59375Q91.125 169.96875 91.125 170.625Q91.125 171.26562 91.484375 171.65625Q91.859375 172.04688 92.515625 172.04688Q93.15625 172.04688 93.515625 171.67188Q93.890625 171.29688 93.890625 170.625ZM93.6875 166.28125Q93.6875 165.70312 93.375 165.35938Q93.078125 165.0 92.515625 165.0Q91.953125 165.0 91.640625 165.34375Q91.34375 165.6875 91.34375 166.28125Q91.34375 166.875 91.640625 167.25Q91.953125 167.60938 92.515625 167.60938Q93.078125 167.60938 93.375 167.25Q93.6875 166.875 93.6875 166.28125ZM103.875 169.39062Q103.875 171.45312 103.015625 172.54688Q102.171875 173.64062 100.515625 173.64062Q98.890625 173.64062 98.03125 172.5625Q97.171875 171.48438 97.15625 169.48438L97.15625 167.65625Q97.15625 165.5625 98.015625 164.48438Q98.875 163.40625 100.5 163.40625Q102.140625 163.40625 103.0 164.48438Q103.859375 165.54688 103.875 167.54688L103.875 169.39062ZM101.90625 167.375Q101.90625 166.14062 101.5625 165.57812Q101.21875 165.01562 100.5 165.01562Q99.8125 165.01562 99.46875 165.54688Q99.140625 166.07812 99.125 167.21875L99.125 169.64062Q99.125 170.85938 99.453125 171.45312Q99.78125 172.04688 100.515625 172.04688Q101.25 172.04688 101.5625 171.48438Q101.890625 170.90625 101.90625 169.73438L101.90625 167.375Z" fill-rule="nonzero"/><path fill="#000000" d="M65.796875 169.51562Q65.03125 170.28125 64.0 170.28125Q62.671875 170.28125 61.875 169.375Q61.09375 168.46875 61.09375 166.9375Q61.09375 165.95312 61.515625 165.14062Q61.9375 164.3125 62.703125 163.85938Q63.46875 163.40625 64.4375 163.40625Q65.421875 163.40625 66.1875 163.90625Q66.953125 164.39062 67.375 165.3125Q67.796875 166.23438 67.796875 167.42188L67.796875 168.15625Q67.796875 170.65625 66.5625 172.07812Q65.328125 173.5 63.0625 173.59375L62.578125 173.59375L62.578125 171.95312L63.015625 171.9375Q65.59375 171.82812 65.796875 169.51562ZM64.484375 168.76562Q64.953125 168.76562 65.296875 168.53125Q65.640625 168.28125 65.828125 167.92188L65.828125 167.10938Q65.828125 166.10938 65.4375 165.5625Q65.0625 165.0 64.421875 165.0Q63.828125 165.0 63.4375 165.54688Q63.0625 166.09375 63.0625 166.90625Q63.0625 167.71875 63.421875 168.25Q63.796875 168.76562 64.484375 168.76562ZM75.875 169.39062Q75.875 171.45312 75.015625 172.54688Q74.171875 173.64062 72.515625 173.64062Q70.890625 173.64062 70.03125 172.5625Q69.171875 171.48438 69.15625 169.48438L69.15625 167.65625Q69.15625 165.5625 70.015625 164.48438Q70.875 163.40625 72.5 163.40625Q74.140625 163.40625 75.0 164.48438Q75.859375 165.54688 75.875 167.54688L75.875 169.39062ZM73.90625 167.375Q73.90625 166.14062 73.5625 165.57812Q73.21875 165.01562 72.5 165.01562Q71.8125 165.01562 71.46875 165.54688Q71.140625 166.07812 71.125 167.21875L71.125 169.64062Q71.125 170.85938 71.453125 171.45312Q71.78125 172.04688 72.515625 172.04688Q73.25 172.04688 73.5625 171.48438Q73.890625 170.90625 73.90625 169.73438L73.90625 167.375Z" fill-rule="nonzero"/><path fill="#000000" d="M33.96875 173.5L32.0 173.5L32.0 165.89062L29.640625 166.60938L29.640625 165.01562L33.765625 163.53125L33.96875 163.53125L33.96875 173.5ZM43.875 169.39062Q43.875 171.45312 43.015625 172.54688Q42.171875 173.64062 40.515625 173.64062Q38.890625 173.64062 38.03125 172.5625Q37.171875 171.48438 37.15625 169.48438L37.15625 167.65625Q37.15625 165.5625 38.015625 164.48438Q38.875 163.40625 40.5 163.40625Q42.140625 163.40625 43.0 164.48438Q43.859375 165.54688 43.875 167.54688L43.875 169.39062ZM41.90625 167.375Q41.90625 166.14062 41.5625 165.57812Q41.21875 165.01562 40.5 165.01562Q39.8125 165.01562 39.46875 165.54688Q39.140625 166.07812 39.125 167.21875L39.125 169.64062Q39.125 170.85938 39.453125 171.45312Q39.78125 172.04688 40.515625 172.04688Q41.25 172.04688 41.5625 171.48438Q41.890625 170.90625 41.90625 169.73438L41.90625 167.375ZM51.875 169.39062Q51.875 171.45312 51.015625 172.54688Q50.171875 173.64062 48.515625 173.64062Q46.890625 173.64062 46.03125 172.5625Q45.171875 171.48438 45.15625 169.48438L45.15625 167.65625Q45.15625 165.5625 46.015625 164.48438Q46.875 163.40625 48.5 163.40625Q50.140625 163.40625 51.0 164.48438Q51.859375 165.54688 51.875 167.54688L51.875 169.39062ZM49.90625 167.375Q49.90625 166.14062 49.5625 165.57812Q49.21875 165.01562 48.5 165.01562Q47.8125 165.01562 47.46875 165.54688Q47.140625 166.07812 47.125 167.21875L47.125 169.64062Q47.125 170.85938 47.453125 171.45312Q47.78125 172.04688 48.515625 172.04688Q49.25 172.04688 49.5625 171.48438Q49.890625 170.90625 49.90625 169.73438L49.90625 167.375Z" fill-rule="nonzero"/></svg>