<svg version="1.1" viewBox="0.0 0.0 190.0 225.0" fill="none" stroke="none" stroke-linecap="square" stroke-miterlimit="10" width="190" height="225" xmlns:xlink="http://www.w3.org/1999/xlink" xmlns="http://www.w3.org/2000/svg"><path fill="#ffffff" d="M0 0L190.0 0L190.0 225.0L0 225.0L0 0Z" fill-rule="nonzero"/><path stroke="#cccccc" stroke-width="1.0" stroke-linecap="butt" d="M180.5 18.5L180.5 153.5" fill-rule="nonzero"/><path stroke="#cccccc" stroke-width="1.0" stroke-linecap="butt" d="M152.5 18.5L152.5 153.5" fill-rule="nonzero"/><path stroke="#cccccc" stroke-width="1.0" stroke-linecap="butt" d="M124.5 18.5L124.5 153.5" fill-rule="nonzero"/><path stroke="#cccccc" stroke-width="1.0" stroke-linecap="butt" d="M96.5 18.5L96.5 153.5" fill-rule="nonzero"/><path stroke="#cccccc" stroke-width="1.0" stroke-linecap="butt" d="M68.5 18.5L68.5 153.5" fill-rule="nonzero"/><path stroke="#cccccc" stroke-width="1.0" stroke-linecap="butt" d="M40.5 18.5L40.5 153.5" fill-rule="nonzero"/><path stroke="#cccccc" stroke-width="1.0" stroke-linecap="butt" d="M40.5 153.5L180.5 153.5" fill-rule="nonzero"/><path stroke="#cccccc" stroke-width="1.0" stroke-linecap="butt" d="M40.5 126.5L180.5 126.5" fill-rule="nonzero"/><path stroke="#cccccc" stroke-width="1.0" stroke-linecap="butt" d="M40.5 99.5L180.5 99.5" fill-rule="nonzero"/><path stroke="#cccccc" stroke-width="1.0" stroke-linecap="butt" d="M40.5 72.5L180.5 72.5" fill-rule="nonzero"/><path stroke="#cccccc" stroke-width="1.0" stroke-linecap="butt" d="M40.5 45.5L180.5 45.5" fill-rule="nonzero"/><path stroke="#cccccc" stroke-width="1.0" stroke-linecap="butt" d="M40.5 18.5L180.5 18.5" fill-rule="nonzero"/><clipPath id="id_0"><path d="M40.5 18.0L180.5 18.0L180.5 153.5L40.5 153.5L40.5 18.0Z" clip-rule="nonzero"/></clipPath><path stroke="#4285f4" stroke-width="4.0" stroke-linecap="butt" clip-path="url(#id_0)" d="M40.5 81.3571L82.5 92.4614L124.5 93.553856L180.5 101.15761" fill-rule="nonzero"/><path stroke="#ea4335" stroke-width="4.0" stroke-linecap="butt" clip-path="url(#id_0)" d="M40.5 79.52721L82.5 129.93637L124.5 137.57838L180.5 133.04373" fill-rule="nonzero"/><path stroke="#fbbc04" stroke-width="4.0" stroke-linecap="butt" clip-path="url(#id_0)" d="M40.5 45.97097L82.5 49.607567L124.5 60.317646L180.5 71.30767" fill-rule="nonzero"/><path fill="#000000" fill-opacity="0.0" clip-path="url(#id_0)" d="M43.5 81.3571C43.5 83.013954 42.156853 84.3571 40.5 84.3571C38.843147 84.3571 37.5 83.013954 37.5 81.3571C37.5 79.70025 38.843147 78.3571 40.5 78.3571C42.156853 78.3571 43.5 79.70025 43.5 81.3571Z" fill-rule="nonzero"/><path fill="#000000" fill-opacity="0.0" clip-path="url(#id_0)" d="M85.5 92.4614C85.5 94.118256 84.15685 95.4614 82.5 95.4614C80.84315 95.4614 79.5 94.118256 79.5 92.4614C79.5 90.80455 80.84315 89.4614 82.5 89.4614C84.15685 89.4614 85.5 90.80455 85.5 92.4614Z" fill-rule="nonzero"/><path fill="#000000" fill-opacity="0.0" clip-path="url(#id_0)" d="M127.5 93.553856C127.5 95.21071 126.15685 96.553856 124.5 96.553856C122.84315 96.553856 121.5 95.21071 121.5 93.553856C121.5 91.897 122.84315 90.553856 124.5 90.553856C126.15685 90.553856 127.5 91.897 127.5 93.553856Z" fill-rule="nonzero"/><path fill="#000000" fill-opacity="0.0" clip-path="url(#id_0)" d="M183.5 101.15761C183.5 102.81446 182.15686 104.15761 180.5 104.15761C178.84314 104.15761 177.5 102.81446 177.5 101.15761C177.5 99.500755 178.84314 98.15761 180.5 98.15761C182.15686 98.15761 183.5 99.500755 183.5 101.15761Z" fill-rule="nonzero"/><path fill="#000000" fill-opacity="0.0" clip-path="url(#id_0)" d="M43.5 79.52721C43.5 81.18406 42.156853 82.52721 40.5 82.52721C38.843147 82.52721 37.5 81.18406 37.5 79.52721C37.5 77.87035 38.843147 76.52721 40.5 76.52721C42.156853 76.52721 43.5 77.87035 43.5 79.52721Z" fill-rule="nonzero"/><path fill="#000000" fill-opacity="0.0" clip-path="url(#id_0)" d="M85.5 129.93637C85.5 131.59323 84.15685 132.93637 82.5 132.93637C80.84315 132.93637 79.5 131.59323 79.5 129.93637C79.5 128.27953 80.84315 126.93637 82.5 126.93637C84.15685 126.93637 85.5 128.27953 85.5 129.93637Z" fill-rule="nonzero"/><path fill="#000000" fill-opacity="0.0" clip-path="url(#id_0)" d="M127.5 137.57838C127.5 139.23524 126.15685 140.57838 124.5 140.57838C122.84315 140.57838 121.5 139.23524 121.5 137.57838C121.5 135.92152 122.84315 134.57838 124.5 134.57838C126.15685 134.57838 127.5 135.92152 127.5 137.57838Z" fill-rule="nonzero"/><path fill="#000000" fill-opacity="0.0" clip-path="url(#id_0)" d="M183.5 133.04373C183.5 134.70059 182.15686 136.04373 180.5 136.04373C178.84314 136.04373 177.5 134.70059 177.5 133.04373C177.5 131.38689 178.84314 130.04373 180.5 130.04373C182.15686 130.04373 183.5 131.38689 183.5 133.04373Z" fill-rule="nonzero"/><path fill="#000000" fill-opacity="0.0" clip-path="url(#id_0)" d="M43.5 45.97097C43.5 47.627823 42.156853 48.97097 40.5 48.97097C38.843147 48.97097 37.5 47.627823 37.5 45.97097C37.5 44.314114 38.843147 42.97097 40.5 42.97097C42.156853 42.97097 43.5 44.314114 43.5 45.97097Z" fill-rule="nonzero"/><path fill="#000000" fill-opacity="0.0" clip-path="url(#id_0)" d="M85.5 49.607567C85.5 51.264423 84.15685 52.607567 82.5 52.607567C80.84315 52.607567 79.5 51.264423 79.5 49.607567C79.5 47.950714 80.84315 46.607567 82.5 46.607567C84.15685 46.607567 85.5 47.950714 85.5 49.607567Z" fill-rule="nonzero"/><path fill="#000000" fill-opacity="0.0" clip-path="url(#id_0)" d="M127.5 60.317646C127.5 61.9745 126.15685 63.317646 124.5 63.317646C122.84315 63.317646 121.5 61.9745 121.5 60.317646C121.5 58.66079 122.84315 57.317646 124.5 57.317646C126.15685 57.317646 127.5 58.66079 127.5 60.317646Z" fill-rule="nonzero"/><path fill="#000000" fill-opacity="0.0" clip-path="url(#id_0)" d="M183.5 71.30767C183.5 72.96452 182.15686 74.30767 180.5 74.30767C178.84314 74.30767 177.5 72.96452 177.5 71.30767C177.5 69.65082 178.84314 68.30767 180.5 68.30767C182.15686 68.30767 183.5 69.65082 183.5 71.30767Z" fill-rule="nonzero"/><path fill="#000000" d="M76.140625 208.625L77.484375 201.54688L79.53125 201.54688L77.3125 211.5L75.25 211.5L73.625 204.84375L72.015625 211.5L69.953125 211.5L67.734375 201.54688L69.78125 201.54688L71.125 208.60938L72.765625 201.54688L74.5 201.54688L76.140625 208.625ZM83.65625 211.64062Q82.03125 211.64062 81.015625 210.64062Q80.0 209.64062 80.0 207.98438L80.0 207.78125Q80.0 206.67188 80.421875 205.79688Q80.859375 204.92188 81.640625 204.45312Q82.4375 203.96875 83.4375 203.96875Q84.96875 203.96875 85.828125 204.92188Q86.703125 205.875 86.703125 207.64062L86.703125 208.4375L82.0 208.4375Q82.09375 209.17188 82.578125 209.60938Q83.0625 210.04688 83.796875 210.04688Q84.9375 210.04688 85.578125 209.21875L86.546875 210.29688Q86.109375 210.9375 85.34375 211.29688Q84.59375 211.64062 83.65625 211.64062ZM83.4375 205.5625Q82.84375 205.5625 82.484375 205.96875Q82.125 206.35938 82.015625 207.09375L84.765625 207.09375L84.765625 206.9375Q84.75 206.28125 84.40625 205.92188Q84.0625 205.5625 83.4375 205.5625ZM94.921875 207.875Q94.921875 209.64062 94.15625 210.64062Q93.40625 211.64062 92.046875 211.64062Q90.84375 211.64062 90.125 210.71875L90.03125 211.5L88.265625 211.5L88.265625 201.0L90.234375 201.0L90.234375 204.76562Q90.921875 203.96875 92.03125 203.96875Q93.390625 203.96875 94.15625 204.96875Q94.921875 205.95312 94.921875 207.76562L94.921875 207.875ZM92.953125 207.71875Q92.953125 206.60938 92.59375 206.09375Q92.234375 205.57812 91.53125 205.57812Q90.59375 205.57812 90.234375 206.34375L90.234375 209.26562Q90.59375 210.04688 91.546875 210.04688Q92.5 210.04688 92.8125 209.09375Q92.953125 208.65625 92.953125 207.71875ZM98.4375 208.0L98.4375 211.5L96.390625 211.5L96.390625 201.54688L100.265625 201.54688Q101.390625 201.54688 102.234375 201.95312Q103.09375 202.35938 103.546875 203.125Q104.015625 203.875 104.015625 204.84375Q104.015625 206.29688 103.015625 207.15625Q102.015625 208.0 100.234375 208.0L98.4375 208.0ZM98.4375 206.32812L100.265625 206.32812Q101.078125 206.32812 101.5 205.95312Q101.9375 205.5625 101.9375 204.85938Q101.9375 204.125 101.5 203.67188Q101.078125 203.21875 100.3125 203.20312L98.4375 203.20312L98.4375 206.32812ZM116.546875 206.75Q116.546875 208.14062 116.09375 209.17188Q115.65625 210.20312 114.84375 210.82812L116.5 212.125L115.203125 213.28125L113.078125 211.57812Q112.71875 211.64062 112.328125 211.64062Q111.09375 211.64062 110.109375 211.04688Q109.140625 210.45312 108.609375 209.34375Q108.078125 208.23438 108.078125 206.79688L108.078125 206.3125Q108.078125 204.84375 108.609375 203.73438Q109.140625 202.60938 110.09375 202.01562Q111.0625 201.40625 112.3125 201.40625Q113.5625 201.40625 114.515625 202.01562Q115.484375 202.60938 116.015625 203.73438Q116.546875 204.84375 116.546875 206.29688L116.546875 206.75ZM114.46875 206.29688Q114.46875 204.73438 113.90625 203.92188Q113.359375 203.10938 112.3125 203.10938Q111.28125 203.10938 110.71875 203.92188Q110.15625 204.71875 110.15625 206.26562L110.15625 206.75Q110.15625 208.26562 110.71875 209.10938Q111.28125 209.95312 112.328125 209.95312Q113.359375 209.95312 113.90625 209.14062Q114.46875 208.32812 114.46875 206.78125L114.46875 206.29688ZM122.6875 210.75Q121.953125 211.64062 120.671875 211.64062Q119.46875 211.64062 118.84375 210.95312Q118.21875 210.26562 118.21875 208.95312L118.21875 204.10938L120.1875 204.10938L120.1875 208.875Q120.1875 210.03125 121.234375 210.03125Q122.25 210.03125 122.625 209.34375L122.625 204.10938L124.609375 204.10938L124.609375 211.5L122.75 211.5L122.6875 210.75ZM130.54688 211.5Q130.40625 211.23438 130.34375 210.84375Q129.625 211.64062 128.48438 211.64062Q127.390625 211.64062 126.671875 211.01562Q125.96875 210.375 125.96875 209.42188Q125.96875 208.25 126.828125 207.625Q127.703125 206.98438 129.35938 206.98438L130.26562 206.98438L130.26562 206.5625Q130.26562 206.04688 130.0 205.73438Q129.73438 205.42188 129.17188 205.42188Q128.67188 205.42188 128.39062 205.67188Q128.10938 205.90625 128.10938 206.32812L126.125 206.32812Q126.125 205.6875 126.515625 205.14062Q126.921875 204.59375 127.640625 204.28125Q128.375 203.96875 129.28125 203.96875Q130.64062 203.96875 131.4375 204.65625Q132.25 205.34375 132.25 206.57812L132.25 209.79688Q132.25 210.84375 132.54688 211.39062L132.54688 211.5L130.54688 211.5ZM128.90625 210.125Q129.34375 210.125 129.71875 209.9375Q130.09375 209.73438 130.26562 209.40625L130.26562 208.14062L129.53125 208.14062Q128.04688 208.14062 127.953125 209.15625L127.9375 209.28125Q127.9375 209.64062 128.1875 209.89062Q128.45312 210.125 128.90625 210.125ZM136.34375 211.5L134.35938 211.5L134.35938 201.0L136.34375 201.0L136.34375 211.5ZM140.34375 211.5L138.35938 211.5L138.35938 204.10938L140.34375 204.10938L140.34375 211.5ZM138.25 202.1875Q138.25 201.75 138.54688 201.46875Q138.84375 201.17188 139.35938 201.17188Q139.85938 201.17188 140.15625 201.46875Q140.45312 201.75 140.45312 202.1875Q140.45312 202.64062 140.15625 202.9375Q139.85938 203.21875 139.35938 203.21875Q138.85938 203.21875 138.54688 202.9375Q138.25 202.64062 138.25 202.1875ZM144.625 202.28125L144.625 204.10938L145.89062 204.10938L145.89062 205.54688L144.625 205.54688L144.625 209.25Q144.625 209.65625 144.78125 209.84375Q144.9375 210.01562 145.39062 210.01562Q145.71875 210.01562 145.96875 209.96875L145.96875 211.45312Q145.39062 211.64062 144.76562 211.64062Q142.6875 211.64062 142.65625 209.53125L142.65625 205.54688L141.5625 205.54688L141.5625 204.10938L142.65625 204.10938L142.65625 202.28125L144.625 202.28125ZM150.01562 208.70312L151.39062 204.10938L153.5 204.10938L150.53125 212.65625L150.375 213.03125Q149.70312 214.48438 148.1875 214.48438Q147.75 214.48438 147.3125 214.35938L147.3125 212.85938L147.60938 212.875Q148.17188 212.875 148.4375 212.70312Q148.71875 212.53125 148.875 212.125L149.10938 211.51562L146.51562 204.10938L148.64062 204.10938L150.01562 208.70312Z" fill-rule="nonzero"/><path fill="#000000" d="M18.46875 153.10938L19.046875 148.04688L24.625 148.04688L24.625 149.6875L20.671875 149.6875L20.421875 151.82812Q21.125 151.45312 21.921875 151.45312Q23.34375 151.45312 24.140625 152.34375Q24.953125 153.21875 24.953125 154.8125Q24.953125 155.76562 24.546875 156.53125Q24.140625 157.29688 23.375 157.71875Q22.625 158.14062 21.59375 158.14062Q20.6875 158.14062 19.90625 157.78125Q19.140625 157.40625 18.6875 156.75Q18.25 156.07812 18.21875 155.23438L20.171875 155.23438Q20.234375 155.85938 20.609375 156.20312Q20.984375 156.54688 21.578125 156.54688Q22.25 156.54688 22.609375 156.0625Q22.96875 155.57812 22.96875 154.70312Q22.96875 153.84375 22.546875 153.40625Q22.140625 152.95312 21.375 152.95312Q20.671875 152.95312 20.234375 153.3125L20.046875 153.5L18.46875 153.10938ZM32.875 153.89062Q32.875 155.95312 32.015625 157.04688Q31.171875 158.14062 29.515625 158.14062Q27.890625 158.14062 27.03125 157.0625Q26.171875 155.98438 26.15625 153.98438L26.15625 152.15625Q26.15625 150.0625 27.015625 148.98438Q27.875 147.90625 29.5 147.90625Q31.140625 147.90625 32.0 148.98438Q32.859375 150.04688 32.875 152.04688L32.875 153.89062ZM30.90625 151.875Q30.90625 150.64062 30.5625 150.07812Q30.21875 149.51562 29.5 149.51562Q28.8125 149.51562 28.46875 150.04688Q28.140625 150.57812 28.125 151.71875L28.125 154.14062Q28.125 155.35938 28.453125 155.95312Q28.78125 156.54688 29.515625 156.54688Q30.25 156.54688 30.5625 155.98438Q30.890625 155.40625 30.90625 154.23438L30.90625 151.875Z" fill-rule="nonzero"/><path fill="#000000" d="M23.53125 120.837494L23.53125 122.47812L23.34375 122.47812Q22.0 122.493744 21.1875 123.16562Q20.375 123.837494 20.203125 125.04062Q21.0 124.243744 22.203125 124.243744Q23.515625 124.243744 24.28125 125.181244Q25.046875 126.10312 25.046875 127.618744Q25.046875 128.5875 24.625 129.38437Q24.203125 130.16562 23.421875 130.60312Q22.65625 131.04062 21.6875 131.04062Q20.125 131.04062 19.15625 129.94687Q18.1875 128.85312 18.1875 127.024994L18.1875 126.306244Q18.1875 124.69687 18.796875 123.462494Q19.40625 122.212494 20.546875 121.54062Q21.703125 120.85312 23.203125 120.837494L23.53125 120.837494ZM21.609375 125.82187Q21.125 125.82187 20.734375 126.07187Q20.34375 126.32187 20.171875 126.743744L20.171875 127.337494Q20.171875 128.32187 20.5625 128.88437Q20.953125 129.44687 21.65625 129.44687Q22.28125 129.44687 22.671875 128.94687Q23.078125 128.43124 23.078125 127.63437Q23.078125 126.82187 22.671875 126.32187Q22.28125 125.82187 21.609375 125.82187ZM32.875 126.79062Q32.875 128.85312 32.015625 129.94687Q31.171875 131.04062 29.515625 131.04062Q27.890625 131.04062 27.03125 129.9625Q26.171875 128.88437 26.15625 126.88437L26.15625 125.056244Q26.15625 122.962494 27.015625 121.88437Q27.875 120.806244 29.5 120.806244Q31.140625 120.806244 32.0 121.88437Q32.859375 122.94687 32.875 124.94687L32.875 126.79062ZM30.90625 124.774994Q30.90625 123.54062 30.5625 122.97812Q30.21875 122.41562 29.5 122.41562Q28.8125 122.41562 28.46875 122.94687Q28.140625 123.47812 28.125 124.618744L28.125 127.04062Q28.125 128.25937 28.453125 128.85312Q28.78125 129.44687 29.515625 129.44687Q30.25 129.44687 30.5625 128.88437Q30.890625 128.30624 30.90625 127.13437L30.90625 124.774994Z" fill-rule="nonzero"/><path fill="#000000" d="M24.9375 94.95625L21.09375 103.8L19.015625 103.8L22.859375 95.44063L17.921875 95.44063L17.921875 93.84688L24.9375 93.84688L24.9375 94.95625ZM32.875 99.69063Q32.875 101.75313 32.015625 102.84688Q31.171875 103.94063 29.515625 103.94063Q27.890625 103.94063 27.03125 102.8625Q26.171875 101.78438 26.15625 99.78438L26.15625 97.95625Q26.15625 95.8625 27.015625 94.78438Q27.875 93.70625 29.5 93.70625Q31.140625 93.70625 32.0 94.78438Q32.859375 95.84688 32.875 97.84688L32.875 99.69063ZM30.90625 97.675Q30.90625 96.44063 30.5625 95.87813Q30.21875 95.31563 29.5 95.31563Q28.8125 95.31563 28.46875 95.84688Q28.140625 96.37813 28.125 97.51875L28.125 99.94063Q28.125 101.15938 28.453125 101.75313Q28.78125 102.34688 29.515625 102.34688Q30.25 102.34688 30.5625 101.78438Q30.890625 101.20625 30.90625 100.03438L30.90625 97.675Z" fill-rule="nonzero"/><path fill="#000000" d="M24.671875 69.3875Q24.671875 70.12187 24.296875 70.68437Q23.9375 71.23125 23.296875 71.575Q24.03125 71.91875 24.453125 72.52812Q24.875 73.1375 24.875 73.96562Q24.875 75.29375 23.96875 76.075Q23.078125 76.84062 21.515625 76.84062Q19.96875 76.84062 19.0625 76.075Q18.15625 75.29375 18.15625 73.96562Q18.15625 73.1375 18.578125 72.52812Q19.0 71.91875 19.71875 71.575Q19.078125 71.23125 18.71875 70.68437Q18.359375 70.12187 18.359375 69.3875Q18.359375 68.12187 19.203125 67.37187Q20.0625 66.60625 21.515625 66.60625Q22.96875 66.60625 23.8125 67.35625Q24.671875 68.10625 24.671875 69.3875ZM22.890625 73.825Q22.890625 73.18437 22.515625 72.79375Q22.140625 72.40312 21.5 72.40312Q20.875 72.40312 20.5 72.79375Q20.125 73.16875 20.125 73.825Q20.125 74.46562 20.484375 74.85625Q20.859375 75.24687 21.515625 75.24687Q22.15625 75.24687 22.515625 74.87187Q22.890625 74.49687 22.890625 73.825ZM22.6875 69.48125Q22.6875 68.90312 22.375 68.55937Q22.078125 68.2 21.515625 68.2Q20.953125 68.2 20.640625 68.54375Q20.34375 68.8875 20.34375 69.48125Q20.34375 70.075 20.640625 70.45Q20.953125 70.80937 21.515625 70.80937Q22.078125 70.80937 22.375 70.45Q22.6875 70.075 22.6875 69.48125ZM32.875 72.59062Q32.875 74.65312 32.015625 75.74687Q31.171875 76.84062 29.515625 76.84062Q27.890625 76.84062 27.03125 75.7625Q26.171875 74.68437 26.15625 72.68437L26.15625 70.85625Q26.15625 68.7625 27.015625 67.68437Q27.875 66.60625 29.5 66.60625Q31.140625 66.60625 32.0 67.68437Q32.859375 68.74687 32.875 70.74687L32.875 72.59062ZM30.90625 70.575Q30.90625 69.34062 30.5625 68.77812Q30.21875 68.21562 29.5 68.21562Q28.8125 68.21562 28.46875 68.74687Q28.140625 69.27812 28.125 70.41875L28.125 72.84062Q28.125 74.05937 28.453125 74.65312Q28.78125 75.24687 29.515625 75.24687Q30.25 75.24687 30.5625 74.68437Q30.890625 74.10625 30.90625 72.93437L30.90625 70.575Z" fill-rule="nonzero"/><path fill="#000000" d="M22.796875 45.615623Q22.03125 46.38125 21.0 46.38125Q19.671875 46.38125 18.875 45.475Q18.09375 44.56875 18.09375 43.0375Q18.09375 42.053123 18.515625 41.240623Q18.9375 40.4125 19.703125 39.959373Q20.46875 39.50625 21.4375 39.50625Q22.421875 39.50625 23.1875 40.00625Q23.953125 40.490623 24.375 41.4125Q24.796875 42.334373 24.796875 43.521873L24.796875 44.25625Q24.796875 46.75625 23.5625 48.178123Q22.328125 49.6 20.0625 49.69375L19.578125 49.69375L19.578125 48.053123L20.015625 48.0375Q22.59375 47.928123 22.796875 45.615623ZM21.484375 44.865623Q21.953125 44.865623 22.296875 44.63125Q22.640625 44.38125 22.828125 44.021873L22.828125 43.209373Q22.828125 42.209373 22.4375 41.6625Q22.0625 41.1 21.421875 41.1Q20.828125 41.1 20.4375 41.646873Q20.0625 42.19375 20.0625 43.00625Q20.0625 43.81875 20.421875 44.35Q20.796875 44.865623 21.484375 44.865623ZM32.875 45.490623Q32.875 47.553123 32.015625 48.646873Q31.171875 49.740623 29.515625 49.740623Q27.890625 49.740623 27.03125 48.6625Q26.171875 47.584373 26.15625 45.584373L26.15625 43.75625Q26.15625 41.6625 27.015625 40.584373Q27.875 39.50625 29.5 39.50625Q31.140625 39.50625 32.0 40.584373Q32.859375 41.646873 32.875 43.646873L32.875 45.490623ZM30.90625 43.475Q30.90625 42.240623 30.5625 41.678123Q30.21875 41.115623 29.5 41.115623Q28.8125 41.115623 28.46875 41.646873Q28.140625 42.178123 28.125 43.31875L28.125 45.740623Q28.125 46.959373 28.453125 47.553123Q28.78125 48.146873 29.515625 48.146873Q30.25 48.146873 30.5625 47.584373Q30.890625 47.00625 30.90625 45.834373L30.90625 43.475Z" fill-rule="nonzero"/><path fill="#000000" d="M14.96875 22.5L13.0 22.5L13.0 14.890625L10.640625 15.609375L10.640625 14.015625L14.765625 12.53125L14.96875 12.53125L14.96875 22.5ZM24.875 18.390625Q24.875 20.453125 24.015625 21.546875Q23.171875 22.640625 21.515625 22.640625Q19.890625 22.640625 19.03125 21.5625Q18.171875 20.484375 18.15625 18.484375L18.15625 16.65625Q18.15625 14.5625 19.015625 13.484375Q19.875 12.40625 21.5 12.40625Q23.140625 12.40625 24.0 13.484375Q24.859375 14.546875 24.875 16.546875L24.875 18.390625ZM22.90625 16.375Q22.90625 15.140625 22.5625 14.578125Q22.21875 14.015625 21.5 14.015625Q20.8125 14.015625 20.46875 14.546875Q20.140625 15.078125 20.125 16.21875L20.125 18.640625Q20.125 19.859375 20.453125 20.453125Q20.78125 21.046875 21.515625 21.046875Q22.25 21.046875 22.5625 20.484375Q22.890625 19.90625 22.90625 18.734375L22.90625 16.375ZM32.875 18.390625Q32.875 20.453125 32.015625 21.546875Q31.171875 22.640625 29.515625 22.640625Q27.890625 22.640625 27.03125 21.5625Q26.171875 20.484375 26.15625 18.484375L26.15625 16.65625Q26.15625 14.5625 27.015625 13.484375Q27.875 12.40625 29.5 12.40625Q31.140625 12.40625 32.0 13.484375Q32.859375 14.546875 32.875 16.546875L32.875 18.390625ZM30.90625 16.375Q30.90625 15.140625 30.5625 14.578125Q30.21875 14.015625 29.5 14.015625Q28.8125 14.015625 28.46875 14.546875Q28.140625 15.078125 28.125 16.21875L28.125 18.640625Q28.125 19.859375 28.453125 20.453125Q28.78125 21.046875 29.515625 21.046875Q30.25 21.046875 30.5625 20.484375Q30.890625 19.90625 30.90625 18.734375L30.90625 16.375Z" fill-rule="nonzero"/><path fill="#000000" d="M173.46875 168.60938L174.04688 163.54688L179.625 163.54688L179.625 165.1875L175.67188 165.1875L175.42188 167.32812Q176.125 166.95312 176.92188 166.95312Q178.34375 166.95312 179.14062 167.84375Q179.95312 168.71875 179.95312 170.3125Q179.95312 171.26562 179.54688 172.03125Q179.14062 172.79688 178.375 173.21875Q177.625 173.64062 176.59375 173.64062Q175.6875 173.64062 174.90625 173.28125Q174.14062 172.90625 173.6875 172.25Q173.25 171.57812 173.21875 170.73438L175.17188 170.73438Q175.23438 171.35938 175.60938 171.70312Q175.98438 172.04688 176.57812 172.04688Q177.25 172.04688 177.60938 171.5625Q177.96875 171.07812 177.96875 170.20312Q177.96875 169.34375 177.54688 168.90625Q177.14062 168.45312 176.375 168.45312Q175.67188 168.45312 175.23438 168.8125L175.04688 169.0L173.46875 168.60938ZM187.875 169.39062Q187.875 171.45312 187.01562 172.54688Q186.17188 173.64062 184.51562 173.64062Q182.89062 173.64062 182.03125 172.5625Q181.17188 171.48438 181.15625 169.48438L181.15625 167.65625Q181.15625 165.5625 182.01562 164.48438Q182.875 163.40625 184.5 163.40625Q186.14062 163.40625 187.0 164.48438Q187.85938 165.54688 187.875 167.54688L187.875 169.39062ZM185.90625 167.375Q185.90625 166.14062 185.5625 165.57812Q185.21875 165.01562 184.5 165.01562Q183.8125 165.01562 183.46875 165.54688Q183.14062 166.07812 183.125 167.21875L183.125 169.64062Q183.125 170.85938 183.45312 171.45312Q183.78125 172.04688 184.51562 172.04688Q185.25 172.04688 185.5625 171.48438Q185.89062 170.90625 185.90625 169.73438L185.90625 167.375Z" fill-rule="nonzero"/><path fill="#000000" d="M150.53125 163.4375L150.53125 165.07812L150.34375 165.07812Q149.0 165.09375 148.1875 165.76562Q147.375 166.4375 147.20312 167.64062Q148.0 166.84375 149.20312 166.84375Q150.51562 166.84375 151.28125 167.78125Q152.04688 168.70312 152.04688 170.21875Q152.04688 171.1875 151.625 171.98438Q151.20312 172.76562 150.42188 173.20312Q149.65625 173.64062 148.6875 173.64062Q147.125 173.64062 146.15625 172.54688Q145.1875 171.45312 145.1875 169.625L145.1875 168.90625Q145.1875 167.29688 145.79688 166.0625Q146.40625 164.8125 147.54688 164.14062Q148.70312 163.45312 150.20312 163.4375L150.53125 163.4375ZM148.60938 168.42188Q148.125 168.42188 147.73438 168.67188Q147.34375 168.92188 147.17188 169.34375L147.17188 169.9375Q147.17188 170.92188 147.5625 171.48438Q147.95312 172.04688 148.65625 172.04688Q149.28125 172.04688 149.67188 171.54688Q150.07812 171.03125 150.07812 170.23438Q150.07812 169.42188 149.67188 168.92188Q149.28125 168.42188 148.60938 168.42188ZM159.875 169.39062Q159.875 171.45312 159.01562 172.54688Q158.17188 173.64062 156.51562 173.64062Q154.89062 173.64062 154.03125 172.5625Q153.17188 171.48438 153.15625 169.48438L153.15625 167.65625Q153.15625 165.5625 154.01562 164.48438Q154.875 163.40625 156.5 163.40625Q158.14062 163.40625 159.0 164.48438Q159.85938 165.54688 159.875 167.54688L159.875 169.39062ZM157.90625 167.375Q157.90625 166.14062 157.5625 165.57812Q157.21875 165.01562 156.5 165.01562Q155.8125 165.01562 155.46875 165.54688Q155.14062 166.07812 155.125 167.21875L155.125 169.64062Q155.125 170.85938 155.45312 171.45312Q155.78125 172.04688 156.51562 172.04688Q157.25 172.04688 157.5625 171.48438Q157.89062 170.90625 157.90625 169.73438L157.90625 167.375Z" fill-rule="nonzero"/><path fill="#000000" d="M123.9375 164.65625L120.09375 173.5L118.015625 173.5L121.859375 165.14062L116.921875 165.14062L116.921875 163.54688L123.9375 163.54688L123.9375 164.65625ZM131.875 169.39062Q131.875 171.45312 131.01562 172.54688Q130.17188 173.64062 128.51562 173.64062Q126.890625 173.64062 126.03125 172.5625Q125.171875 171.48438 125.15625 169.48438L125.15625 167.65625Q125.15625 165.5625 126.015625 164.48438Q126.875 163.40625 128.5 163.40625Q130.14062 163.40625 131.0 164.48438Q131.85938 165.54688 131.875 167.54688L131.875 169.39062ZM129.90625 167.375Q129.90625 166.14062 129.5625 165.57812Q129.21875 165.01562 128.5 165.01562Q127.8125 165.01562 127.46875 165.54688Q127.140625 166.07812 127.125 167.21875L127.125 169.64062Q127.125 170.85938 127.453125 171.45312Q127.78125 172.04688 128.51562 172.04688Q129.25 172.04688 129.5625 171.48438Q129.89062 170.90625 129.90625 169.73438L129.90625 167.375Z" fill-rule="nonzero"/><path fill="#000000" d="M95.671875 166.1875Q95.671875 166.92188 95.296875 167.48438Q94.9375 168.03125 94.296875 168.375Q95.03125 168.71875 95.453125 169.32812Q95.875 169.9375 95.875 170.76562Q95.875 172.09375 94.96875 172.875Q94.078125 173.64062 92.515625 173.64062Q90.96875 173.64062 90.0625 172.875Q89.15625 172.09375 89.15625 170.76562Q89.15625 169.9375 89.578125 169.32812Q90.0 168.71875 90.71875 168.375Q90.078125 168.03125 89.71875 167.48438Q89.359375 166.92188 89.359375 166.1875Q89.359375 164.92188 90.203125 164.17188Q91.0625 163.40625 92.515625 163.40625Q93.96875 163.40625 94.8125 164.15625Q95.671875 164.90625 95.671875 166.1875ZM93.890625 170.625Q93.890625 169.98438 93.515625 169.59375Q93.140625 169.20312 92.5 169.20312Q91.875 169.20312 91.5 169.59375Q91.125 169.96875 91.125 170.625Q91.125 171.26562 91.484375 171.65625Q91.859375 172.04688 92.515625 172.04688Q93.15625 172.04688 93.515625 171.67188Q93.890625 171.29688 93.890625 170.625ZM93.6875 166.28125Q93.6875 165.70312 93.375 165.35938Q93.078125 165.0 92.515625 165.0Q91.953125 165.0 91.640625 165.34375Q91.34375 165.6875 91.34375 166.28125Q91.34375 166.875 91.640625 167.25Q91.953125 167.60938 92.515625 167.60938Q93.078125 167.60938 93.375 167.25Q93.6875 166.875 93.6875 166.28125ZM103.875 169.39062Q103.875 171.45312 103.015625 172.54688Q102.171875 173.64062 100.515625 173.64062Q98.890625 173.64062 98.03125 172.5625Q97.171875 171.48438 97.15625 169.48438L97.15625 167.65625Q97.15625 165.5625 98.015625 164.48438Q98.875 163.40625 100.5 163.40625Q102.140625 163.40625 103.0 164.48438Q103.859375 165.54688 103.875 167.54688L103.875 169.39062ZM101.90625 167.375Q101.90625 166.14062 101.5625 165.57812Q101.21875 165.01562 100.5 165.01562Q99.8125 165.01562 99.46875 165.54688Q99.140625 166.07812 99.125 167.21875L99.125 169.64062Q99.125 170.85938 99.453125 171.45312Q99.78125 172.04688 100.515625 172.04688Q101.25 172.04688 101.5625 171.48438Q101.890625 170.90625 101.90625 169.73438L101.90625 167.375Z" fill-rule="nonzero"/><path fill="#000000" d="M65.796875 169.51562Q65.03125 170.28125 64.0 170.28125Q62.671875 170.28125 61.875 169.375Q61.09375 168.46875 61.09375 166.9375Q61.09375 165.95312 61.515625 165.14062Q61.9375 164.3125 62.703125 163.85938Q63.46875 163.40625 64.4375 163.40625Q65.421875 163.40625 66.1875 163.90625Q66.953125 164.39062 67.375 165.3125Q67.796875 166.23438 67.796875 167.42188L67.796875 168.15625Q67.796875 170.65625 66.5625 172.07812Q65.328125 173.5 63.0625 173.59375L62.578125 173.59375L62.578125 171.95312L63.015625 171.9375Q65.59375 171.82812 65.796875 169.51562ZM64.484375 168.76562Q64.953125 168.76562 65.296875 168.53125Q65.640625 168.28125 65.828125 167.92188L65.828125 167.10938Q65.828125 166.10938 65.4375 165.5625Q65.0625 165.0 64.421875 165.0Q63.828125 165.0 63.4375 165.54688Q63.0625 166.09375 63.0625 166.90625Q63.0625 167.71875 63.421875 168.25Q63.796875 168.76562 64.484375 168.76562ZM75.875 169.39062Q75.875 171.45312 75.015625 172.54688Q74.171875 173.64062 72.515625 173.64062Q70.890625 173.64062 70.03125 172.5625Q69.171875 171.48438 69.15625 169.48438L69.15625 167.65625Q69.15625 165.5625 70.015625 164.48438Q70.875 163.40625 72.5 163.40625Q74.140625 163.40625 75.0 164.48438Q75.859375 165.54688 75.875 167.54688L75.875 169.39062ZM73.90625 167.375Q73.90625 166.14062 73.5625 165.57812Q73.21875 165.01562 72.5 165.01562Q71.8125 165.01562 71.46875 165.54688Q71.140625 166.07812 71.125 167.21875L71.125 169.64062Q71.125 170.85938 71.453125 171.45312Q71.78125 172.04688 72.515625 172.04688Q73.25 172.04688 73.5625 171.48438Q73.890625 170.90625 73.90625 169.73438L73.90625 167.375Z" fill-rule="nonzero"/><path fill="#000000" d="M33.96875 173.5L32.0 173.5L32.0 165.89062L29.640625 166.60938L29.640625 165.01562L33.765625 163.53125L33.96875 163.53125L33.96875 173.5ZM43.875 169.39062Q43.875 171.45312 43.015625 172.54688Q42.171875 173.64062 40.515625 173.64062Q38.890625 173.64062 38.03125 172.5625Q37.171875 171.48438 37.15625 169.48438L37.15625 167.65625Q37.15625 165.5625 38.015625 164.48438Q38.875 163.40625 40.5 163.40625Q42.140625 163.40625 43.0 164.48438Q43.859375 165.54688 43.875 167.54688L43.875 169.39062ZM41.90625 167.375Q41.90625 166.14062 41.5625 165.57812Q41.21875 165.01562 40.5 165.01562Q39.8125 165.01562 39.46875 165.54688Q39.140625 166.07812 39.125 167.21875L39.125 169.64062Q39.125 170.85938 39.453125 171.45312Q39.78125 172.04688 40.515625 172.04688Q41.25 172.04688 41.5625 171.48438Q41.890625 170.90625 41.90625 169.73438L41.90625 167.375ZM51.875 169.39062Q51.875 171.45312 51.015625 172.54688Q50.171875 173.64062 48.515625 173.64062Q46.890625 173.64062 46.03125 172.5625Q45.171875 171.48438 45.15625 169.48438L45.15625 167.65625Q45.15625 165.5625 46.015625 164.48438Q46.875 163.40625 48.5 163.40625Q50.140625 163.40625 51.0 164.48438Q51.859375 165.54688 51.875 167.54688L51.875 169.39062ZM49.90625 167.375Q49.90625 166.14062 49.5625 165.57812Q49.21875 165.01562 48.5 165.01562Q47.8125 165.01562 47.46875 165.54688Q47.140625 166.07812 47.125 167.21875L47.125 169.64062Q47.125 170.85938 47.453125 171.45312Q47.78125 172.04688 48.515625 172.04688Q49.25 172.04688 49.5625 171.48438Q49.890625 170.90625 49.90625 169.73438L49.90625 167.375Z" fill-rule="nonzero"/></svg>